<?xml version="1.0" encoding="UTF-8" standalone="no"?>
<!-- Created with Inkscape (http://www.inkscape.org/) -->

<svg
   xmlns:dc="http://purl.org/dc/elements/1.1/"
   xmlns:cc="http://creativecommons.org/ns#"
   xmlns:rdf="http://www.w3.org/1999/02/22-rdf-syntax-ns#"
   xmlns:svg="http://www.w3.org/2000/svg"
   xmlns="http://www.w3.org/2000/svg"
   xmlns:xlink="http://www.w3.org/1999/xlink"
   xmlns:sodipodi="http://sodipodi.sourceforge.net/DTD/sodipodi-0.dtd"
   xmlns:inkscape="http://www.inkscape.org/namespaces/inkscape"
   width="190mm"
   height="50mm"
   viewBox="0 0 190 50"
   version="1.1"
   id="svg8"
   inkscape:version="0.92.4 (5da689c313, 2019-01-14)"
   sodipodi:docname="Banner.svg">
  <defs
     id="defs2">
    <radialGradient
       id="python-original-c"
       cx="1825.678"
       cy="444.45001"
       r="26.743"
       gradientTransform="matrix(0,-0.24,-1.055,0,532.979,557.576)"
       gradientUnits="userSpaceOnUse">
      <stop
         offset="0"
         stop-color="#B8B8B8"
         stop-opacity=".498"
         id="stop2122" />
      <stop
         offset="1"
         stop-color="#7F7F7F"
         stop-opacity="0"
         id="stop2124" />
    </radialGradient>
    <clipPath
       id="inkscape-original-b">
      <use
         height="100%"
         width="100%"
         y="0"
         x="0"
         style="overflow:visible"
         xlink:href="#inkscape-original-a"
         overflow="visible"
         id="use6544" />
    </clipPath>
    <linearGradient
       id="inkscape-original-c"
       gradientUnits="userSpaceOnUse"
       x1="98.292999"
       y1="237.026"
       x2="74.286003"
       y2="215.319"
       gradientTransform="matrix(0.985,0,0,-0.985,6.128,272.439)">
      <stop
         offset="0"
         stop-color="#C0CDF9"
         id="stop6547" />
      <stop
         offset="1"
         stop-color="#07092D"
         stop-opacity=".288"
         id="stop6549" />
    </linearGradient>
    <linearGradient
       id="inkscape-original-d"
       gradientUnits="userSpaceOnUse"
       x1="33.173"
       y1="245.076"
       x2="60.307999"
       y2="217.94099"
       gradientTransform="matrix(1.003,0,0,-1.003,-0.413,276.586)">
      <stop
         offset="0"
         stop-color="#fff"
         id="stop6556" />
      <stop
         offset="1"
         stop-color="#fff"
         stop-opacity="0"
         id="stop6558" />
    </linearGradient>
    <linearGradient
       id="inkscape-original-e"
       gradientUnits="userSpaceOnUse"
       x1="48.612"
       y1="250.177"
       x2="81.172997"
       y2="217.616"
       gradientTransform="matrix(0.994,0,0,-0.994,2.709,274.439)">
      <stop
         offset="0"
         stop-color="#fff"
         id="stop6563" />
      <stop
         offset="1"
         stop-color="#fff"
         stop-opacity="0"
         id="stop6565" />
    </linearGradient>
    <radialGradient
       id="inkscape-original-f"
       cx="51.136002"
       cy="13.518"
       r="33.212002"
       gradientTransform="matrix(0.827,0,0,-0.553,1.123,126.746)"
       gradientUnits="userSpaceOnUse">
      <stop
         offset="0"
         stop-color="#fff"
         id="stop6570" />
      <stop
         offset="1"
         stop-color="#fff"
         stop-opacity="0"
         id="stop6572" />
    </radialGradient>
    <radialGradient
       id="inkscape-original-g"
       cx="147.452"
       cy="14.758"
       r="33.212002"
       gradientTransform="matrix(1.055,0,0,-0.706,-97.55,130.348)"
       gradientUnits="userSpaceOnUse">
      <stop
         offset="0"
         stop-color="#fff"
         id="stop6577" />
      <stop
         offset="1"
         stop-color="#fff"
         stop-opacity="0"
         id="stop6579" />
    </radialGradient>
    <radialGradient
       id="inkscape-original-h"
       cx="-53.737"
       cy="94.672997"
       r="37.174"
       gradientTransform="matrix(0.526,0,0,-0.223,130.969,98.356)"
       gradientUnits="userSpaceOnUse">
      <stop
         offset="0"
         stop-color="#fff"
         id="stop6586" />
      <stop
         offset="1"
         stop-color="#fff"
         stop-opacity="0"
         id="stop6588" />
    </radialGradient>
    <radialGradient
       id="inkscape-original-i"
       cx="-45.82"
       cy="80.196999"
       r="37.174"
       gradientTransform="matrix(0.526,0,0,-0.223,130.969,97.429)"
       gradientUnits="userSpaceOnUse">
      <stop
         offset="0"
         stop-color="#fff"
         id="stop6593" />
      <stop
         offset="1"
         stop-color="#fff"
         stop-opacity="0"
         id="stop6595" />
    </radialGradient>
    <linearGradient
       id="inkscape-original-j"
       gradientUnits="userSpaceOnUse"
       x1="-32.429001"
       y1="73.095001"
       x2="-32.292999"
       y2="66.244003"
       gradientTransform="matrix(0.526,0,0,-0.526,130.306,130.092)">
      <stop
         offset="0"
         stop-color="#fff"
         id="stop6602" />
      <stop
         offset="1"
         stop-color="#fff"
         stop-opacity="0"
         id="stop6604" />
    </linearGradient>
    <linearGradient
       id="inkscape-original-k"
       gradientUnits="userSpaceOnUse"
       x1="112.548"
       y1="76.804001"
       x2="112.548"
       y2="71.973999"
       gradientTransform="matrix(0.709,0,0,-1.134,33.501,178.262)">
      <stop
         offset="0"
         stop-color="#fff"
         id="stop6609" />
      <stop
         offset="1"
         stop-color="#fff"
         stop-opacity="0"
         id="stop6611" />
    </linearGradient>
    <radialGradient
       id="inkscape-original-l"
       cx="-34.115002"
       cy="13.297"
       r="15.297"
       gradientTransform="matrix(0.526,0,0,-0.078,130.969,98.77)"
       gradientUnits="userSpaceOnUse">
      <stop
         offset="0"
         stop-color="#fff"
         id="stop6618" />
      <stop
         offset="1"
         stop-color="#fff"
         stop-opacity="0"
         id="stop6620" />
    </radialGradient>
    <linearGradient
       id="inkscape-original-m"
       gradientUnits="userSpaceOnUse"
       x1="-643.91199"
       y1="327.836"
       x2="-643.77698"
       y2="320.98401"
       gradientTransform="matrix(0.203,-0.103,-0.238,-0.469,311.261,190.221)">
      <stop
         offset="0"
         stop-color="#fff"
         id="stop6625" />
      <stop
         offset="1"
         stop-color="#fff"
         stop-opacity="0"
         id="stop6627" />
    </linearGradient>
    <linearGradient
       id="inkscape-original-n"
       gradientUnits="userSpaceOnUse"
       x1="-341.63501"
       y1="195.138"
       x2="-341.63501"
       y2="190.308"
       gradientTransform="matrix(0.273,-0.139,-0.513,-1.011,295.216,251.45)">
      <stop
         offset="0"
         stop-color="#fff"
         id="stop6632" />
      <stop
         offset="1"
         stop-color="#fff"
         stop-opacity="0"
         id="stop6634" />
    </linearGradient>
    <radialGradient
       id="inkscape-original-o"
       cx="-645.599"
       cy="1737.484"
       r="15.297"
       gradientTransform="matrix(0.203,-0.103,-0.035,-0.069,297.352,162.155)"
       gradientUnits="userSpaceOnUse">
      <stop
         offset="0"
         stop-color="#fff"
         id="stop6641" />
      <stop
         offset="1"
         stop-color="#fff"
         stop-opacity="0"
         id="stop6643" />
    </radialGradient>
    <radialGradient
       id="inkscape-original-p"
       cx="-185.187"
       cy="69.660004"
       r="24.691999"
       gradientTransform="matrix(0.526,0,0,-0.214,130.969,105.831)"
       gradientUnits="userSpaceOnUse">
      <stop
         offset="0"
         stop-color="#fff"
         stop-opacity=".33"
         id="stop6648" />
      <stop
         offset="1"
         stop-color="#fff"
         stop-opacity="0"
         id="stop6650" />
    </radialGradient>
    <linearGradient
       id="inkscape-original-q"
       gradientUnits="userSpaceOnUse"
       x1="-136.743"
       y1="250.438"
       x2="-136.60699"
       y2="243.586"
       gradientTransform="matrix(0.463,0.102,0.123,-0.366,65.856,208.72)">
      <stop
         offset="0"
         stop-color="#fff"
         id="stop6655" />
      <stop
         offset="1"
         stop-color="#fff"
         stop-opacity="0"
         id="stop6657" />
    </linearGradient>
    <linearGradient
       id="inkscape-original-r"
       gradientUnits="userSpaceOnUse"
       x1="60.342999"
       y1="183.942"
       x2="60.342999"
       y2="179.112"
       gradientTransform="matrix(0.623,0.219,0.166,-0.789,-34.636,234.581)">
      <stop
         offset="0"
         stop-color="#fff"
         id="stop6662" />
      <stop
         offset="1"
         stop-color="#fff"
         stop-opacity="0"
         id="stop6664" />
    </linearGradient>
    <radialGradient
       id="inkscape-original-s"
       cx="-62.571999"
       cy="357.021"
       r="11.363"
       gradientTransform="matrix(0.624,-0.173,-0.065,-0.233,95.948,182.007)"
       gradientUnits="userSpaceOnUse">
      <stop
         offset="0"
         stop-color="#fff"
         id="stop6673" />
      <stop
         offset="1"
         stop-color="#fff"
         stop-opacity="0"
         id="stop6675" />
    </radialGradient>
    <radialGradient
       id="inkscape-original-t"
       cx="193.011"
       cy="256.754"
       r="59.424999"
       gradientTransform="matrix(1.712,0,0,-1.685,-261.607,451.789)"
       gradientUnits="userSpaceOnUse">
      <stop
         offset="0"
         stop-color="#fff"
         id="stop6682" />
      <stop
         offset="1"
         stop-color="#fff"
         stop-opacity="0"
         id="stop6684" />
    </radialGradient>
    <linearGradient
       id="inkscape-original-u"
       gradientUnits="userSpaceOnUse"
       x1="-224.589"
       y1="68.903"
       x2="-161.63699"
       y2="52.257999"
       gradientTransform="matrix(0.485,0,0,-0.485,149.184,125.791)">
      <stop
         offset="0"
         stop-color="#fff"
         id="stop6689" />
      <stop
         offset="1"
         stop-color="#fff"
         stop-opacity="0"
         id="stop6691" />
    </linearGradient>
    <linearGradient
       id="inkscape-original-v"
       gradientUnits="userSpaceOnUse"
       x1="13.153"
       y1="197.76801"
       x2="9.2530003"
       y2="188.832"
       gradientTransform="matrix(0.88,0,0,-0.88,42.035,252.063)">
      <stop
         offset="0"
         stop-color="#EEEEEC"
         id="stop6698" />
      <stop
         offset="1"
         stop-color="#EEEEEC"
         stop-opacity="0"
         id="stop6700" />
    </linearGradient>
    <radialGradient
       id="inkscape-original-w"
       cx="26.356001"
       cy="55.589001"
       r="24.385"
       gradientTransform="matrix(0.656,0,0,-0.834,66.991,147.128)"
       gradientUnits="userSpaceOnUse">
      <stop
         offset="0"
         stop-color="#fff"
         id="stop6705" />
      <stop
         offset="1"
         stop-color="#fff"
         stop-opacity="0"
         id="stop6707" />
    </radialGradient>
    <linearGradient
       id="inkscape-original-x"
       gradientUnits="userSpaceOnUse"
       x1="-245.694"
       y1="88.661003"
       x2="-235.88"
       y2="80.863998"
       gradientTransform="matrix(0.49,0,0,-0.49,147.66,125.008)">
      <stop
         offset="0"
         stop-color="#fff"
         id="stop6716" />
      <stop
         offset="1"
         stop-color="#fff"
         stop-opacity="0"
         id="stop6718" />
    </linearGradient>
    <linearGradient
       id="inkscape-original-y"
       gradientUnits="userSpaceOnUse"
       x1="-115.448"
       y1="55.254002"
       x2="-144.875"
       y2="134.487"
       gradientTransform="matrix(0.485,0,0,-0.485,149.184,125.791)">
      <stop
         offset="0"
         stop-color="#729FCF"
         id="stop6723" />
      <stop
         offset="1"
         stop-color="#729FCF"
         stop-opacity="0"
         id="stop6725" />
    </linearGradient>
    <path
       inkscape:connector-curvature="0"
       id="inkscape-original-a"
       d="M 53.4,9.5 9.1,54.9 c -16.8,16.8 10.8,15.4 20.8,21.7 4.6,3 -14.8,6.9 -10.9,10.9 3.9,4 23.3,7.6 27.2,11.5 3.9,4 -7.8,8.2 -4,12.1 3.8,4 12.8,0.2 14.4,9.2 1.2,6.7 16.6,3.3 23.4,-2.4 l -3.5,-7.6 c 9.7,-9.8 18.3,-4.4 21.8,-13.4 1.9,-4.8 -14.6,-8.3 -10.2,-11.4 10.5,-7.4 49.2,-11.2 31.4,-29 L 73.6,9.5 C 68,4.2 58.6,4.2 53.4,9.5 Z M 42.7,79.1 c 1,0 33.1,4.3 20.7,7.6 C 58.7,88 37,79.1 42.7,79.1 Z m 61.5,17.8 c 0,2.3 17.5,3.5 16.6,-0.5 -1.4,-6.9 -14.7,-6.3 -16.6,0.5 z m -74.7,12 c 4,3.4 10,-0.8 11.9,-5.6 -3.8,-5.1 -18.1,0.3 -11.9,5.6 z m 72.6,-7.2 c -4.9,4.5 0.9,9.2 5.7,6.1 1.2,-0.9 -0.2,-5.1 -5.7,-6.1 z" />
  </defs>
  <sodipodi:namedview
     id="base"
     pagecolor="#ffffff"
     bordercolor="#666666"
     borderopacity="1.0"
     inkscape:pageopacity="0.0"
     inkscape:pageshadow="2"
     inkscape:zoom="1.4142136"
     inkscape:cx="346.50903"
     inkscape:cy="-29.231955"
     inkscape:document-units="mm"
     inkscape:current-layer="layer1"
     showgrid="false"
     showborder="true"
     inkscape:window-width="1920"
     inkscape:window-height="1001"
     inkscape:window-x="-9"
     inkscape:window-y="-9"
     inkscape:window-maximized="1"
     inkscape:object-nodes="false"
     fit-margin-top="0"
     fit-margin-left="0"
     fit-margin-right="0"
     fit-margin-bottom="0" />
  <metadata
     id="metadata5">
    <rdf:RDF>
      <cc:Work
         rdf:about="">
        <dc:format>image/svg+xml</dc:format>
        <dc:type
           rdf:resource="http://purl.org/dc/dcmitype/StillImage" />
        <dc:title />
      </cc:Work>
    </rdf:RDF>
  </metadata>
  <g
     inkscape:label="Layer 1"
     inkscape:groupmode="layer"
     id="layer1"
     transform="translate(445.69876,-148.92277)">
    <rect
       style="opacity:1;fill:#ffcc00;fill-opacity:1;fill-rule:evenodd;stroke:#000064;stroke-width:0;stroke-linecap:square;stroke-linejoin:miter;stroke-miterlimit:4;stroke-dasharray:none;stroke-opacity:1;paint-order:fill markers stroke"
       id="rect815"
       width="190"
       height="50"
       x="-445.69876"
       y="148.92278" />
    <text
       xml:space="preserve"
       style="font-style:normal;font-variant:normal;font-weight:normal;font-stretch:normal;font-size:10.58333302px;line-height:0;font-family:'Sitka Small';-inkscape-font-specification:'Sitka Small';letter-spacing:0px;word-spacing:0px;fill:#000000;fill-opacity:1;stroke:none;stroke-width:0.26458332"
       x="-292.55359"
       y="453.48215"
       id="text1310"><tspan
         sodipodi:role="line"
         id="tspan1308"
         x="-292.55359"
         y="456.20013"
         style="stroke-width:0.26458332" /></text>
    <g
       id="g1360"
       transform="translate(28.083026,15.675739)">
      <path
         d="m -410.58098,159.2325 v 3.07475 q 1.04301,-0.0784 1.58561,-0.88625 0.5426,-0.80787 0.5426,-2.1885 h 4.1479 q 0,1.68207 -0.44011,2.77331 -0.44012,1.09123 -1.3746,1.80867 1.88102,1.43488 2.07395,4.61815 h -4.39508 q -0.15675,-3.29179 -2.14027,-3.3581 v 3.3581 h -4.06952 v -9.20013 z"
         style="font-style:normal;font-variant:normal;font-weight:normal;font-stretch:normal;font-size:12.34722233px;line-height:0;font-family:'Gill Sans Ultra Bold';-inkscape-font-specification:'Gill Sans Ultra Bold, ';letter-spacing:0px;word-spacing:0px;fill:#14162b;fill-opacity:1;stroke:none;stroke-width:0.26458332"
         id="path1287"
         inkscape:connector-curvature="0" />
      <path
         d="m -395.31576,166.12356 v 2.30907 h -7.63864 v -9.20013 h 7.63864 v 2.30908 h -3.56912 v 1.13947 h 2.48392 v 2.30907 h -2.48392 v 1.13344 z"
         style="font-style:normal;font-variant:normal;font-weight:normal;font-stretch:normal;font-size:12.34722233px;line-height:0;font-family:'Gill Sans Ultra Bold';-inkscape-font-specification:'Gill Sans Ultra Bold, ';letter-spacing:0px;word-spacing:0px;fill:#14162b;fill-opacity:1;stroke:none;stroke-width:0.26458332"
         id="path1289"
         inkscape:connector-curvature="0" />
      <path
         d="m -384.67472,159.2325 -3.12298,9.20013 h -3.94894 l -3.12901,-9.20013 h 4.06349 l 1.03698,3.09887 1.03697,-3.09887 z"
         style="font-style:normal;font-variant:normal;font-weight:normal;font-stretch:normal;font-size:12.34722233px;line-height:0;font-family:'Gill Sans Ultra Bold';-inkscape-font-specification:'Gill Sans Ultra Bold, ';letter-spacing:0px;word-spacing:0px;fill:#14162b;fill-opacity:1;stroke:none;stroke-width:0.26458332"
         id="path1291"
         inkscape:connector-curvature="0" />
      <path
         d="m -381.72356,168.43263 h -4.07555 l 3.19532,-9.20013 h 5.80585 l 3.19533,9.20013 h -4.06952 l -0.53055,-1.55546 h -2.99034 z m 1.2721,-3.72587 h 1.50723 l -0.75362,-2.28496 z"
         style="font-style:normal;font-variant:normal;font-weight:normal;font-stretch:normal;font-size:12.34722233px;line-height:0;font-family:'Gill Sans Ultra Bold';-inkscape-font-specification:'Gill Sans Ultra Bold, ';letter-spacing:0px;word-spacing:0px;fill:#14162b;fill-opacity:1;stroke:none;stroke-width:0.26458332"
         id="path1293"
         inkscape:connector-curvature="0" />
      <path
         d="m -372.70732,168.43263 v -9.20013 h 4.07555 v 6.89106 h 3.56912 v 2.30907 z"
         style="font-style:normal;font-variant:normal;font-weight:normal;font-stretch:normal;font-size:12.34722233px;line-height:0;font-family:'Gill Sans Ultra Bold';-inkscape-font-specification:'Gill Sans Ultra Bold, ';letter-spacing:0px;word-spacing:0px;fill:#14162b;fill-opacity:1;stroke:none;stroke-width:0.26458332"
         id="path1295"
         inkscape:connector-curvature="0" />
      <path
         d="m -359.91998,159.2325 h 4.52771 q 2.44774,0 3.78013,1.35651 1.33239,1.35048 1.33239,3.26165 0,1.21784 -0.60892,2.30304 -0.60289,1.07918 -1.7725,1.68207 -1.16961,0.59686 -2.82756,0.59686 h -4.43125 z m 4.06951,3.52089 v 2.15835 h 0.1025 q 0.73552,0 1.06109,-0.25321 0.33159,-0.25924 0.33159,-0.84405 0,-1.06109 -1.23593,-1.06109 z"
         style="font-style:normal;font-variant:normal;font-weight:normal;font-stretch:normal;font-size:12.34722233px;line-height:0;font-family:'Gill Sans Ultra Bold';-inkscape-font-specification:'Gill Sans Ultra Bold, ';letter-spacing:0px;word-spacing:0px;fill:#14162b;fill-opacity:1;stroke:none;stroke-width:0.26458332"
         id="path1297"
         inkscape:connector-curvature="0" />
      <path
         d="m -344.9743,168.43263 h -4.07555 v -9.20013 h 4.07555 v 3.37017 h 2.07394 v -3.37017 h 4.07555 v 9.20013 h -4.07555 v -3.41839 h -2.07394 z"
         style="font-style:normal;font-variant:normal;font-weight:normal;font-stretch:normal;font-size:12.34722233px;line-height:0;font-family:'Gill Sans Ultra Bold';-inkscape-font-specification:'Gill Sans Ultra Bold, ';letter-spacing:0px;word-spacing:0px;fill:#14162b;fill-opacity:1;stroke:none;stroke-width:0.26458332"
         id="path1299"
         inkscape:connector-curvature="0" />
      <path
         d="m -333.86301,168.43263 h -4.07555 l 3.19533,-9.20013 h 5.80585 l 3.19532,9.20013 h -4.06952 l -0.53054,-1.55546 h -2.99034 z m 1.2721,-3.72587 h 1.50723 l -0.75361,-2.28496 z"
         style="font-style:normal;font-variant:normal;font-weight:normal;font-stretch:normal;font-size:12.34722233px;line-height:0;font-family:'Gill Sans Ultra Bold';-inkscape-font-specification:'Gill Sans Ultra Bold, ';letter-spacing:0px;word-spacing:0px;fill:#14162b;fill-opacity:1;stroke:none;stroke-width:0.26458332"
         id="path1301"
         inkscape:connector-curvature="0" />
      <path
         d="m -315.68582,168.50498 h -3.08681 l -1.97748,-2.89991 v 2.82756 h -4.06952 v -9.20013 h 2.91197 l 2.14629,3.11093 v -3.11093 h 4.07555 z"
         style="font-style:normal;font-variant:normal;font-weight:normal;font-stretch:normal;font-size:12.34722233px;line-height:0;font-family:'Gill Sans Ultra Bold';-inkscape-font-specification:'Gill Sans Ultra Bold, ';letter-spacing:0px;word-spacing:0px;fill:#14162b;fill-opacity:1;stroke:none;stroke-width:0.26458332"
         id="path1303"
         inkscape:connector-curvature="0" />
      <path
         d="m -310.82048,168.43263 h -4.07555 l 3.19533,-9.20013 h 5.80584 l 3.19533,9.20013 h -4.06952 l -0.53055,-1.55546 h -2.99034 z m 1.2721,-3.72587 h 1.50723 l -0.75362,-2.28496 z"
         style="font-style:normal;font-variant:normal;font-weight:normal;font-stretch:normal;font-size:12.34722233px;line-height:0;font-family:'Gill Sans Ultra Bold';-inkscape-font-specification:'Gill Sans Ultra Bold, ';letter-spacing:0px;word-spacing:0px;fill:#14162b;fill-opacity:1;stroke:none;stroke-width:0.26458332"
         id="path1305"
         inkscape:connector-curvature="0" />
      <path
         d="m -292.63124,168.50498 h -3.08681 l -1.97748,-2.89991 v 2.82756 h -4.06952 v -9.20013 h 2.91197 l 2.14629,3.11093 v -3.11093 h 4.07555 z"
         style="font-style:normal;font-variant:normal;font-weight:normal;font-stretch:normal;font-size:12.34722233px;line-height:0;font-family:'Gill Sans Ultra Bold';-inkscape-font-specification:'Gill Sans Ultra Bold, ';letter-spacing:0px;word-spacing:0px;fill:#14162b;fill-opacity:1;stroke:none;stroke-width:0.26458332"
         id="path1307"
         inkscape:connector-curvature="0" />
      <path
         d="m -290.81654,168.43263 v -9.20013 h 4.06952 v 9.20013 z"
         style="font-style:normal;font-variant:normal;font-weight:normal;font-stretch:normal;font-size:12.34722233px;line-height:0;font-family:'Gill Sans Ultra Bold';-inkscape-font-specification:'Gill Sans Ultra Bold, ';letter-spacing:0px;word-spacing:0px;fill:#14162b;fill-opacity:1;stroke:none;stroke-width:0.26458332"
         id="path1309"
         inkscape:connector-curvature="0" />
      <path
         d="m -409.59407,158.21651 v 3.07475 q 1.043,-0.0784 1.58561,-0.88625 0.5426,-0.80787 0.5426,-2.1885 h 4.14789 q 0,1.68207 -0.44011,2.77331 -0.44011,1.09123 -1.37459,1.80867 1.88102,1.43488 2.07395,4.61815 h -4.39508 q -0.15675,-3.29179 -2.14027,-3.35811 v 3.35811 h -4.06952 v -9.20013 z"
         style="font-style:normal;font-variant:normal;font-weight:normal;font-stretch:normal;font-size:12.34722233px;line-height:0;font-family:'Gill Sans Ultra Bold';-inkscape-font-specification:'Gill Sans Ultra Bold, ';letter-spacing:0px;word-spacing:0px;fill:#ffffff;fill-opacity:1;stroke:none;stroke-width:0.26458332"
         id="path1262"
         inkscape:connector-curvature="0" />
      <path
         d="m -394.32885,165.10757 v 2.30907 h -7.63864 v -9.20013 h 7.63864 v 2.30908 h -3.56912 v 1.13946 h 2.48391 v 2.30908 h -2.48391 v 1.13344 z"
         style="font-style:normal;font-variant:normal;font-weight:normal;font-stretch:normal;font-size:12.34722233px;line-height:0;font-family:'Gill Sans Ultra Bold';-inkscape-font-specification:'Gill Sans Ultra Bold, ';letter-spacing:0px;word-spacing:0px;fill:#ffffff;fill-opacity:1;stroke:none;stroke-width:0.26458332"
         id="path1264"
         inkscape:connector-curvature="0" />
      <path
         d="m -383.68781,158.21651 -3.12298,9.20013 h -3.94894 l -3.12901,-9.20013 h 4.06349 l 1.03697,3.09887 1.03698,-3.09887 z"
         style="font-style:normal;font-variant:normal;font-weight:normal;font-stretch:normal;font-size:12.34722233px;line-height:0;font-family:'Gill Sans Ultra Bold';-inkscape-font-specification:'Gill Sans Ultra Bold, ';letter-spacing:0px;word-spacing:0px;fill:#ffffff;fill-opacity:1;stroke:none;stroke-width:0.26458332"
         id="path1266"
         inkscape:connector-curvature="0" />
      <path
         d="m -380.73666,167.41664 h -4.07554 l 3.19532,-9.20013 h 5.80585 l 3.19532,9.20013 h -4.06951 l -0.53055,-1.55546 h -2.99034 z m 1.2721,-3.72587 h 1.50723 l -0.75361,-2.28496 z"
         style="font-style:normal;font-variant:normal;font-weight:normal;font-stretch:normal;font-size:12.34722233px;line-height:0;font-family:'Gill Sans Ultra Bold';-inkscape-font-specification:'Gill Sans Ultra Bold, ';letter-spacing:0px;word-spacing:0px;fill:#ffffff;fill-opacity:1;stroke:none;stroke-width:0.26458332"
         id="path1268"
         inkscape:connector-curvature="0" />
      <path
         d="m -371.72041,167.41664 v -9.20013 h 4.07555 v 6.89106 h 3.56912 v 2.30907 z"
         style="font-style:normal;font-variant:normal;font-weight:normal;font-stretch:normal;font-size:12.34722233px;line-height:0;font-family:'Gill Sans Ultra Bold';-inkscape-font-specification:'Gill Sans Ultra Bold, ';letter-spacing:0px;word-spacing:0px;fill:#ffffff;fill-opacity:1;stroke:none;stroke-width:0.26458332"
         id="path1270"
         inkscape:connector-curvature="0" />
      <path
         d="m -358.93308,158.21651 h 4.52772 q 2.44774,0 3.78013,1.35651 1.33239,1.35048 1.33239,3.26164 0,1.21785 -0.60892,2.30305 -0.60289,1.07918 -1.7725,1.68207 -1.16961,0.59686 -2.82756,0.59686 h -4.43126 z m 4.06952,3.52089 v 2.15835 h 0.10249 q 0.73553,0 1.06109,-0.25321 0.33159,-0.25924 0.33159,-0.84405 0,-1.06109 -1.23592,-1.06109 z"
         style="font-style:normal;font-variant:normal;font-weight:normal;font-stretch:normal;font-size:12.34722233px;line-height:0;font-family:'Gill Sans Ultra Bold';-inkscape-font-specification:'Gill Sans Ultra Bold, ';letter-spacing:0px;word-spacing:0px;fill:#ffffff;fill-opacity:1;stroke:none;stroke-width:0.26458332"
         id="path1272"
         inkscape:connector-curvature="0" />
      <path
         d="m -343.9874,167.41664 h -4.07554 v -9.20013 h 4.07554 v 3.37017 h 2.07395 v -3.37017 h 4.07555 v 9.20013 h -4.07555 v -3.41839 h -2.07395 z"
         style="font-style:normal;font-variant:normal;font-weight:normal;font-stretch:normal;font-size:12.34722233px;line-height:0;font-family:'Gill Sans Ultra Bold';-inkscape-font-specification:'Gill Sans Ultra Bold, ';letter-spacing:0px;word-spacing:0px;fill:#ffffff;fill-opacity:1;stroke:none;stroke-width:0.26458332"
         id="path1274"
         inkscape:connector-curvature="0" />
      <path
         d="m -332.8761,167.41664 h -4.07555 l 3.19533,-9.20013 h 5.80584 l 3.19533,9.20013 h -4.06952 l -0.53054,-1.55546 h -2.99035 z m 1.2721,-3.72587 h 1.50723 l -0.75361,-2.28496 z"
         style="font-style:normal;font-variant:normal;font-weight:normal;font-stretch:normal;font-size:12.34722233px;line-height:0;font-family:'Gill Sans Ultra Bold';-inkscape-font-specification:'Gill Sans Ultra Bold, ';letter-spacing:0px;word-spacing:0px;fill:#ffffff;fill-opacity:1;stroke:none;stroke-width:0.26458332"
         id="path1276"
         inkscape:connector-curvature="0" />
      <path
         d="m -314.69891,167.48899 h -3.08681 l -1.97748,-2.89991 v 2.82756 h -4.06952 v -9.20013 h 2.91196 l 2.1463,3.11092 v -3.11092 h 4.07555 z"
         style="font-style:normal;font-variant:normal;font-weight:normal;font-stretch:normal;font-size:12.34722233px;line-height:0;font-family:'Gill Sans Ultra Bold';-inkscape-font-specification:'Gill Sans Ultra Bold, ';letter-spacing:0px;word-spacing:0px;fill:#ffffff;fill-opacity:1;stroke:none;stroke-width:0.26458332"
         id="path1278"
         inkscape:connector-curvature="0" />
      <path
         d="m -309.83357,167.41664 h -4.07555 l 3.19532,-9.20013 h 5.80585 l 3.19533,9.20013 h -4.06952 l -0.53055,-1.55546 h -2.99034 z m 1.2721,-3.72587 h 1.50723 l -0.75362,-2.28496 z"
         style="font-style:normal;font-variant:normal;font-weight:normal;font-stretch:normal;font-size:12.34722233px;line-height:0;font-family:'Gill Sans Ultra Bold';-inkscape-font-specification:'Gill Sans Ultra Bold, ';letter-spacing:0px;word-spacing:0px;fill:#ffffff;fill-opacity:1;stroke:none;stroke-width:0.26458332"
         id="path1280"
         inkscape:connector-curvature="0" />
      <path
         d="m -291.64433,167.48899 h -3.08681 l -1.97748,-2.89991 v 2.82756 h -4.06952 v -9.20013 h 2.91196 l 2.1463,3.11092 v -3.11092 h 4.07555 z"
         style="font-style:normal;font-variant:normal;font-weight:normal;font-stretch:normal;font-size:12.34722233px;line-height:0;font-family:'Gill Sans Ultra Bold';-inkscape-font-specification:'Gill Sans Ultra Bold, ';letter-spacing:0px;word-spacing:0px;fill:#ffffff;fill-opacity:1;stroke:none;stroke-width:0.26458332"
         id="path1282"
         inkscape:connector-curvature="0" />
      <path
         d="m -289.82963,167.41664 v -9.20013 h 4.06952 v 9.20013 z"
         style="font-style:normal;font-variant:normal;font-weight:normal;font-stretch:normal;font-size:12.34722233px;line-height:0;font-family:'Gill Sans Ultra Bold';-inkscape-font-specification:'Gill Sans Ultra Bold, ';letter-spacing:0px;word-spacing:0px;fill:#ffffff;fill-opacity:1;stroke:none;stroke-width:0.26458332"
         id="path1284"
         inkscape:connector-curvature="0" />
    </g>
    <text
       xml:space="preserve"
       style="font-style:normal;font-variant:normal;font-weight:normal;font-stretch:normal;font-size:10.58333302px;line-height:0;font-family:'Sitka Small';-inkscape-font-specification:'Sitka Small';letter-spacing:0px;word-spacing:0px;fill:#000000;fill-opacity:1;stroke:none;stroke-width:0.26458332"
       x="-440.93384"
       y="181.45589"
       id="text895"><tspan
         sodipodi:role="line"
         id="tspan893"
         x="-440.93384"
         y="184.17387"
         style="stroke-width:0.26458332" /></text>
    <text
       xml:space="preserve"
       style="font-style:normal;font-variant:normal;font-weight:normal;font-stretch:normal;font-size:10.58333302px;line-height:0;font-family:'Sitka Small';-inkscape-font-specification:'Sitka Small';letter-spacing:0px;word-spacing:0px;fill:#ff0000;fill-opacity:1;stroke:none;stroke-width:0.26458332"
       x="-361.14655"
       y="192.66986"
       id="text883"><tspan
         sodipodi:role="line"
         x="-361.14655"
         y="192.66986"
         style="font-size:3.88055611px;fill:#ff0000;fill-opacity:1;stroke-width:0.26458332"
         id="tspan889">Uncaught TypeError: displayBanner is not a function</tspan></text>
    <text
       xml:space="preserve"
       style="font-style:normal;font-variant:normal;font-weight:normal;font-stretch:normal;font-size:10.58333302px;line-height:0;font-family:'Sitka Small';-inkscape-font-specification:'Sitka Small';letter-spacing:0px;word-spacing:0px;fill:#ff0000;fill-opacity:1;stroke:none;stroke-width:0.26458332"
       x="-348.41275"
       y="196.65871"
       id="text846"><tspan
         sodipodi:role="line"
         id="tspan844"
         x="-348.41275"
         y="196.65871"
         style="font-size:3.88055611px;fill:#ff0000;fill-opacity:1;stroke-width:0.26458332">at &lt;anonymous&gt;:1:1</tspan></text>
    <text
       xml:space="preserve"
       style="font-style:normal;font-variant:normal;font-weight:normal;font-stretch:normal;font-size:10.58333302px;line-height:0;font-family:'Sitka Small';-inkscape-font-specification:'Sitka Small';letter-spacing:0px;word-spacing:0px;fill:#000000;fill-opacity:1;stroke:none;stroke-width:0.26458332"
       x="-290.22607"
       y="153.87448"
       id="text850"><tspan
         sodipodi:role="line"
         id="tspan848"
         x="-290.22607"
         y="153.87448"
         style="font-size:3.88055611px;fill:#14162b;fill-opacity:1;stroke-width:0.26458332">displayBanner();</tspan></text>
    <g
       id="g13837"
       transform="translate(0,0.52916667)">
      <path
         id="path839"
         d="m -391.30425,183.72914 h -50.24538 a 0.0833091,0.06821002 0 0 1 -0.0834,-0.0682 0.08497528,0.06957423 0 0 1 0.0834,-0.0682 h 50.24538 a 0.08497528,0.06957423 0 0 1 0.0833,0.0682 0.0833091,0.06821002 0 0 1 -0.0833,0.0682 z"
         inkscape:connector-curvature="0"
         style="fill:#14162b;fill-opacity:1;stroke-width:0.26458332" />
      <rect
         id="rect841"
         rx="1.1663275"
         height="19.543535"
         width="37.277493"
         y="161.07384"
         x="-435.57303"
         style="fill:#ffffff;stroke-width:0.26458332" />
      <path
         id="path843-7"
         d="m -399.46354,180.69107 h -34.94318 a 1.2496366,1.0231503 0 0 1 -1.24964,-1.02315 v -17.63776 a 1.2513027,1.0245145 0 0 1 1.24964,-1.02451 h 34.94318 a 1.2529689,1.0258787 0 0 1 1.2513,1.02451 v 17.63229 a 1.2513027,1.0245145 0 0 1 -1.2513,1.02862 z m -34.94318,-19.549 a 1.0846845,0.88809448 0 0 0 -1.08302,0.88809 v 17.63229 a 1.0830183,0.88673029 0 0 0 1.08302,0.88674 h 34.94318 a 1.0846845,0.88809448 0 0 0 1.08468,-0.88674 v -17.63229 a 1.0863507,0.88945869 0 0 0 -1.08468,-0.88809 z"
         inkscape:connector-curvature="0"
         style="fill:#14162b;fill-opacity:1;stroke-width:0.26458332" />
      <path
         id="path845-4"
         d="m -398.29555,177.59432 h -37.27749 a 0.0833091,0.06821002 0 0 1 -0.0834,-0.0682 0.0833091,0.06821002 0 0 1 0.0834,-0.0682 h 37.27749 a 0.08497528,0.06957423 0 0 1 0.0834,0.0682 0.0833091,0.06821002 0 0 1 -0.0834,0.0682 z"
         inkscape:connector-curvature="0"
         style="fill:#14162b;fill-opacity:1;stroke-width:0.26458332" />
      <polygon
         transform="matrix(0.1666182,0,0,0.13642004,-449.75058,155.18051)"
         id="polygon847"
         points="215,186.46 225.55,214.16 168.36,214.16 178.9,186.46 "
         style="fill:#ffffff;stroke-width:1.75493956" />
      <path
         id="path849-1"
         d="m -412.16985,184.46444 h -9.5289 a 0.0833091,0.06821002 0 0 1 -0.0784,-0.0927 l 1.75616,-3.77747 a 0.08497528,0.06957423 0 0 1 0.0784,-0.045 h 6.01492 a 0.0833091,0.06821002 0 0 1 0.0784,0.045 l 1.75449,3.7802 a 0.0833091,0.06821002 0 0 1 0,0.0628 0.08164292,0.06684582 0 0 1 -0.075,0.0273 z m -9.40893,-0.13642 h 9.2873 l -1.69284,-3.63695 h -5.89995 z"
         inkscape:connector-curvature="0"
         style="fill:#14162b;fill-opacity:1;stroke-width:0.26458332" />
      <rect
         id="rect851"
         rx="0.55817097"
         height="1.0190576"
         width="12.881253"
         y="184.17384"
         x="-423.37659"
         style="fill:#ffffff;stroke-width:0.26458332" />
      <path
         id="path853-1"
         d="m -411.0535,185.26113 h -11.76325 a 0.64148006,0.52521718 0 0 1 -0.64315,-0.52521 v -0.10373 a 0.64314626,0.52658136 0 0 1 0.64315,-0.52657 h 11.76325 a 0.64314626,0.52658136 0 0 1 0.64314,0.52657 v 0.10373 a 0.64148006,0.52521718 0 0 1 -0.64314,0.52521 z m -11.76325,-1.02315 a 0.47819424,0.39152553 0 0 0 -0.47653,0.39017 v 0.10373 a 0.47652806,0.39016133 0 0 0 0.47653,0.3888 h 11.76325 a 0.47652806,0.39016133 0 0 0 0.47652,-0.3888 v -0.10373 a 0.47652806,0.39016133 0 0 0 -0.47652,-0.39017 z"
         inkscape:connector-curvature="0"
         style="fill:#14162b;fill-opacity:1;stroke-width:0.26458332" />
      <rect
         id="rect855"
         height="14.335017"
         width="34.614933"
         y="161.99469"
         x="-434.24341"
         style="fill:#14162b;fill-opacity:1;stroke-width:0.26458332" />
      <polygon
         transform="matrix(0.1666182,0,0,0.13642004,-449.75058,155.18051)"
         id="polygon869"
         points="178.5,186.46 173.68,199.11 216.26,190.84 214.6,186.46 "
         style="fill:#14162b;fill-opacity:1;stroke-width:1.75493956" />
      <path
         id="path871"
         d="m -420.81233,182.41132 a 0.08164292,0.06684582 0 0 1 -0.0633,-0.0246 0.08497528,0.06957423 0 0 1 -0.015,-0.0682 l 0.7981,-1.72435 a 0.0833091,0.06821002 0 0 1 0.0784,-0.045 h 6.01492 a 0.08497528,0.06957423 0 0 1 0.0784,0.045 l 0.2766,0.59616 a 0.0833091,0.06821002 0 0 1 -0.0617,0.0914 l -7.09459,1.1282 z m 0.85974,-1.72025 -0.72811,1.56746 6.84967,-1.09136 -0.2216,-0.47747 z"
         inkscape:connector-curvature="0"
         style="fill:#14162b;fill-opacity:1;stroke:none;stroke-width:0.26458332;stroke-opacity:1" />
      <path
         id="path873"
         d="m -396.84597,189.0768 c 0,0 0.66647,-0.2169 0.70146,-1.21141 0.0349,-0.9945 -1.2763,-2.03811 -2.11772,-2.54832 -0.84141,-0.51021 -2.41263,-0.45837 -2.95747,0.0505 -0.54484,0.50884 -1.08802,1.4024 0.31158,2.70248 1.39958,1.30008 3.23738,1.40103 4.06215,1.00677 z"
         inkscape:connector-curvature="0"
         style="fill:#ffffff;stroke-width:0.26458332" />
      <path
         id="path875"
         d="m -397.91733,189.34556 c -0.9114,0 -2.07606,-0.32469 -3.05244,-1.22779 -1.09802,-1.01906 -1.20298,-1.95763 -0.31158,-2.79252 0.58149,-0.54567 2.21768,-0.57706 3.06911,-0.06 0.36489,0.221 2.1877,1.39012 2.15104,2.60426 -0.0316,0.98631 -0.66647,1.24278 -0.74645,1.27007 a 2.2443473,1.8375781 0 0 1 -1.10968,0.206 z m -1.85779,-4.31498 c -0.56817,0 -1.10968,0.12824 -1.38127,0.38198 -0.83309,0.77486 -0.72312,1.65341 0.31158,2.61108 1.39959,1.30008 3.18908,1.3642 3.95718,0.99314 h 0.0117 c 0.025,-0.008 0.61816,-0.21828 0.64814,-1.14866 0.0267,-0.88945 -1.10468,-1.89897 -2.08439,-2.49239 a 2.5425937,2.08177 0 0 0 -1.46291,-0.34515 z"
         inkscape:connector-curvature="0"
         style="fill:#14162b;fill-opacity:1;stroke-width:0.26458332" />
      <path
         id="path877"
         d="m -401.5696,187.27333 a 2.2743386,1.8621336 0 0 1 1.70451,-1.59885 c 1.60286,-0.35741 2.03107,-0.0778 2.03107,-0.0778"
         inkscape:connector-curvature="0"
         style="fill:#ffffff;stroke-width:0.26458332" />
      <path
         id="path879"
         d="m -401.56793,187.34153 v 0 a 0.0833091,0.06821002 0 0 1 -0.0767,-0.0723 2.3743094,1.9439856 0 0 1 1.75782,-1.66705 c 1.6262,-0.36151 2.08606,-0.0763 2.10439,-0.0641 a 0.08366242,0.0684993 0 0 1 -0.10328,0.10774 c 0,0 -0.43655,-0.24965 -1.95777,0.0887 a 2.2060249,1.8062014 0 0 0 -1.64285,1.53745 0.08164292,0.06684582 0 0 1 -0.0816,0.0696 z"
         inkscape:connector-curvature="0"
         style="fill:#14162b;fill-opacity:1;stroke-width:0.26458332" />
      <polygon
         transform="matrix(0.1666182,0,0,0.13642004,-449.75058,155.18051)"
         id="polygon881"
         points="257.4,225.67 275.85,257.63 118.06,257.63 136.5,225.67 "
         style="fill:#ffffff;stroke-width:1.75493956" />
      <path
         id="path883"
         d="m -403.78895,190.39326 h -26.29069 a 0.07997673,0.06548162 0 0 1 -0.0717,-0.0327 0.0833091,0.06821002 0 0 1 0,-0.0682 l 3.07245,-4.36543 a 0.07997673,0.06548162 0 0 1 0.0717,-0.0342 h 20.14581 a 0.0833091,0.06821002 0 0 1 0.0717,0.0342 l 3.07243,4.36543 a 0.0833091,0.06821002 0 0 1 0,0.0682 0.08497528,0.06957423 0 0 1 -0.0717,0.0327 z m -26.14739,-0.13643 h 26.00576 l -2.9758,-4.22902 h -20.05249 z"
         inkscape:connector-curvature="0"
         style="fill:#14162b;fill-opacity:1;stroke-width:0.26458332" />
      <path
         id="path885"
         d="m -425.20939,187.76171 h -1.79948 a 0.08164292,0.06684582 0 0 1 -0.07,-0.0327 0.0833091,0.06821002 0 0 1 0,-0.0669 l 0.36155,-0.57433 a 0.08164292,0.06684582 0 0 1 0.0733,-0.0368 h 1.7345 a 0.0833091,0.06821002 0 0 1 0.07,0.0314 0.08164292,0.06684582 0 0 1 0,0.0641 l -0.29658,0.57433 a 0.08497528,0.06957423 0 0 1 -0.0734,0.041 z m -1.66618,-0.13642 h 1.61786 l 0.2266,-0.4379 h -1.55954 z"
         inkscape:connector-curvature="0"
         style="fill:#d1d3d4;stroke-width:0.26458332" />
      <path
         id="path887"
         d="m -422.59182,187.76171 h -1.79448 a 0.08830765,0.07230263 0 0 1 -0.07,-0.0286 0.0833091,0.06821002 0 0 1 -0.008,-0.0628 l 0.26659,-0.57432 a 0.08497528,0.06957423 0 0 1 0.0784,-0.0451 h 1.7345 a 0.08497528,0.06957423 0 0 1 0.0667,0.0273 0.08830765,0.07230263 0 0 1 0.0134,0.06 l -0.20327,0.57433 a 0.07997673,0.06548162 0 0 1 -0.0834,0.0491 z m -1.67784,-0.13642 h 1.6162 l 0.15494,-0.4379 h -1.56787 z"
         inkscape:connector-curvature="0"
         style="fill:#d1d3d4;stroke-width:0.26458332" />
      <path
         id="path889"
         d="m -419.96758,187.76171 h -1.79114 a 0.08497528,0.06957423 0 0 1 -0.0667,-0.0259 0.08497528,0.06957423 0 0 1 -0.015,-0.0587 l 0.16661,-0.57433 a 0.08497528,0.06957423 0 0 1 0.0817,-0.0519 h 1.73449 a 0.0833091,0.06821002 0 0 1 0.0817,0.0791 l -0.10829,0.57433 a 0.08497528,0.06957423 0 0 1 -0.0834,0.0573 z m -1.69285,-0.13642 h 1.62287 l 0.0817,-0.4379 h -1.57121 z"
         inkscape:connector-curvature="0"
         style="fill:#d1d3d4;stroke-width:0.26458332" />
      <path
         id="path891"
         d="m -417.34501,187.76171 h -1.79948 a 0.08830765,0.07230263 0 0 1 -0.0633,-0.0218 0.08497528,0.06957423 0 0 1 -0.02,-0.0532 l 0.08,-0.57433 a 0.08164292,0.06684582 0 0 1 0.0817,-0.0614 h 1.73449 a 0.08497528,0.06957423 0 0 1 0.06,0.0205 0.07664438,0.06275322 0 0 1 0.0234,0.0491 l -0.0134,0.57433 a 0.0833091,0.06821002 0 0 1 -0.0834,0.0669 z m -1.70617,-0.13642 h 1.62453 l 0.01,-0.4379 h -1.57454 z"
         inkscape:connector-curvature="0"
         style="fill:#d1d3d4;stroke-width:0.26458332" />
      <path
         id="path893"
         d="m -414.72411,187.76171 h -1.79947 a 0.08164292,0.06684582 0 0 1 -0.0834,-0.0669 l -0.015,-0.57433 a 0.08997383,0.07366682 0 0 1 0.0234,-0.0491 0.09164001,0.07503103 0 0 1 0.06,-0.0205 h 1.7345 a 0.0833091,0.06821002 0 0 1 0.0834,0.0614 l 0.0784,0.57433 a 0.07997673,0.06548162 0 0 1 -0.0817,0.075 z m -1.71782,-0.13642 h 1.62452 l -0.0617,-0.4379 h -1.57454 z"
         inkscape:connector-curvature="0"
         style="fill:#d1d3d4;stroke-width:0.26458332" />
      <path
         id="path895"
         d="m -412.09487,187.76171 h -1.79948 a 0.08164292,0.06684582 0 0 1 -0.0817,-0.0573 l -0.11829,-0.57433 a 0.08664147,0.07093842 0 0 1 0.0832,-0.0791 h 1.73449 a 0.08164292,0.06684582 0 0 1 0.08,0.0519 l 0.16662,0.57433 a 0.07997673,0.06548162 0 0 1 -0.015,0.0587 0.08164292,0.06684582 0 0 1 -0.05,0.0259 z m -1.72783,-0.13642 h 1.62119 l -0.13163,-0.4379 h -1.57287 z"
         inkscape:connector-curvature="0"
         style="fill:#d1d3d4;stroke-width:0.26458332" />
      <path
         id="path897"
         d="m -409.4823,187.76171 h -1.79947 a 0.08164292,0.06684582 0 0 1 -0.08,-0.0491 l -0.20328,-0.57433 a 0.08830765,0.07230263 0 0 1 0.0134,-0.06 0.08997383,0.07366682 0 0 1 0.0667,-0.0273 h 1.73616 a 0.08164292,0.06684582 0 0 1 0.0767,0.0451 l 0.26825,0.57433 a 0.08997383,0.07366682 0 0 1 -0.01,0.0628 0.08497528,0.06957423 0 0 1 -0.0683,0.0286 z m -1.73615,-0.13642 h 1.62285 l -0.20327,-0.4379 h -1.56622 z"
         inkscape:connector-curvature="0"
         style="fill:#d1d3d4;stroke-width:0.26458332" />
      <path
         id="path899"
         d="m -406.86139,187.76171 h -1.79948 a 0.08497528,0.06957423 0 0 1 -0.0767,-0.041 l -0.29658,-0.57433 a 0.08164292,0.06684582 0 0 1 0,-0.0641 0.08664147,0.07093842 0 0 1 0.07,-0.0314 h 1.7345 a 0.08664147,0.07093842 0 0 1 0.075,0.0368 l 0.3599,0.57433 a 0.0833091,0.06821002 0 0 1 0,0.0669 0.08497528,0.06957423 0 0 1 -0.0667,0.0327 z m -1.74449,-0.13642 h 1.60786 l -0.27492,-0.4379 h -1.55955 z"
         inkscape:connector-curvature="0"
         style="fill:#d1d3d4;stroke-width:0.26458332" />
      <path
         id="path901"
         d="m -423.71982,188.69209 h -1.79448 a 0.08664147,0.07093842 0 0 1 -0.07,-0.0314 0.07831055,0.06411742 0 0 1 0,-0.0628 l 0.32492,-0.64254 a 0.0833091,0.06821002 0 0 1 0.0767,-0.0423 h 1.72616 a 0.08664147,0.07093842 0 0 1 0.0683,0.0286 0.08664147,0.07093842 0 0 1 0.0117,0.0614 l -0.25658,0.64118 a 0.0833091,0.06821002 0 0 1 -0.0866,0.0477 z m -1.66618,-0.13641 h 1.60953 l 0.2016,-0.50612 h -1.55621 z"
         inkscape:connector-curvature="0"
         style="fill:#d1d3d4;stroke-width:0.26458332" />
      <path
         id="path903"
         d="m -426.0908,188.69209 h -1.49957 a 0.0833091,0.06821002 0 0 1 -0.0717,-0.0327 0.0833091,0.06821002 0 0 1 0,-0.0669 l 0.40321,-0.64118 a 0.08497528,0.06957423 0 0 1 0.075,-0.0382 h 1.44791 a 0.0833091,0.06821002 0 0 1 0.0683,0.0314 0.07997673,0.06548162 0 0 1 0,0.0654 l -0.34656,0.64118 a 0.0833091,0.06821002 0 0 1 -0.0767,0.041 z m -1.36794,-0.13641 h 1.31296 l 0.27325,-0.50612 h -1.26963 z"
         inkscape:connector-curvature="0"
         style="fill:#d1d3d4;stroke-width:0.26458332" />
      <path
         id="path905"
         d="m -421.10392,188.69209 h -1.79447 a 0.08497528,0.06957423 0 0 1 -0.0817,-0.0873 l 0.2266,-0.64117 a 0.0833091,0.06821002 0 0 1 0.08,-0.0505 h 1.72783 a 0.08664147,0.07093842 0 0 1 0.0817,0.0818 l -0.16662,0.64253 a 0.0833091,0.06821002 0 0 1 -0.0733,0.0545 z m -1.68451,-0.13641 h 1.6162 l 0.12496,-0.50612 h -1.56288 z"
         inkscape:connector-curvature="0"
         style="fill:#d1d3d4;stroke-width:0.26458332" />
      <path
         id="path907"
         d="m -418.48967,188.69209 h -1.79449 a 0.08164292,0.06684582 0 0 1 -0.0633,-0.0246 0.08164292,0.06684582 0 0 1 -0.0184,-0.0545 l 0.12663,-0.64254 a 0.0833091,0.06821002 0 0 1 0.0817,-0.0573 h 1.73116 a 0.07997673,0.06548162 0 0 1 0.06,0.0218 0.0833091,0.06821002 0 0 1 0.0234,0.0519 l -0.06,0.64118 a 0.0833091,0.06821002 0 0 1 -0.0866,0.0641 z m -1.69618,-0.13641 h 1.61953 l 0.0466,-0.50612 h -1.57287 z"
         inkscape:connector-curvature="0"
         style="fill:#d1d3d4;stroke-width:0.26458332" />
      <path
         id="path909"
         d="m -415.87377,188.69209 h -1.79447 a 0.07997673,0.06548162 0 0 1 -0.06,-0.0218 0.07497819,0.06138902 0 0 1 -0.0234,-0.0491 l 0.0267,-0.64117 a 0.08497528,0.06957423 0 0 1 0.0833,-0.0669 h 1.72783 a 0.0833091,0.06821002 0 0 1 0.0834,0.0654 l 0.04,0.64117 a 0.07831055,0.06411742 0 0 1 -0.0234,0.0504 0.07997673,0.06548162 0 0 1 -0.06,0.0218 z m -1.70784,-0.13641 h 1.61953 l -0.0299,-0.50612 h -1.56788 z"
         inkscape:connector-curvature="0"
         style="fill:#d1d3d4;stroke-width:0.26458332" />
      <path
         id="path911"
         d="m -413.2612,188.69209 h -1.79281 a 0.08164292,0.06684582 0 0 1 -0.0817,-0.0628 l -0.0717,-0.64117 a 0.07497819,0.06138902 0 0 1 0.0217,-0.0519 0.07831055,0.06411742 0 0 1 0.0616,-0.0232 h 1.72618 a 0.0833091,0.06821002 0 0 1 0.0817,0.0573 l 0.13995,0.64118 a 0.07997673,0.06548162 0 0 1 -0.0184,0.056 0.08164292,0.06684582 0 0 1 -0.0667,0.0246 z m -1.7195,-0.13641 h 1.61953 l -0.10996,-0.50612 h -1.56622 z"
         inkscape:connector-curvature="0"
         style="fill:#d1d3d4;stroke-width:0.26458332" />
      <path
         id="path913"
         d="m -410.64362,188.69209 h -1.79449 a 0.0833091,0.06821002 0 0 1 -0.0817,-0.0545 l -0.16662,-0.64117 a 0.08497528,0.06957423 0 0 1 0.0817,-0.0832 h 1.72616 a 0.0833091,0.06821002 0 0 1 0.08,0.0491 l 0.23826,0.64117 a 0.07664438,0.06275322 0 0 1 -0.0134,0.06 0.08164292,0.06684582 0 0 1 -0.07,0.0286 z m -1.72783,-0.13641 h 1.60952 l -0.18827,-0.50612 h -1.56122 z"
         inkscape:connector-curvature="0"
         style="fill:#d1d3d4;stroke-width:0.26458332" />
      <path
         id="path915"
         d="m -408.02772,188.69209 h -1.79615 a 0.08497528,0.06957423 0 0 1 -0.0784,-0.0464 l -0.26825,-0.64117 a 0.0833091,0.06821002 0 0 1 0.01,-0.0628 0.08664147,0.07093842 0 0 1 0.0683,-0.0286 h 1.72783 a 0.07997673,0.06548162 0 0 1 0.075,0.0423 l 0.33323,0.64117 a 0.0833091,0.06821002 0 0 1 -0.0767,0.0955 z m -1.73616,-0.13641 h 1.60953 l -0.26492,-0.50612 h -1.55621 z"
         inkscape:connector-curvature="0"
         style="fill:#d1d3d4;stroke-width:0.26458332" />
      <path
         id="path917"
         d="m -406.27656,188.69209 h -1.17966 a 0.08164292,0.06684582 0 0 1 -0.075,-0.041 l -0.3599,-0.64118 a 0.08497528,0.06957423 0 0 1 0,-0.0654 0.08997383,0.07366682 0 0 1 0.0717,-0.0314 h 1.13467 a 0.08497528,0.06957423 0 0 1 0.0734,0.0382 l 0.40321,0.64118 a 0.07997673,0.06548162 0 0 1 0,0.0669 0.08164292,0.06684582 0 0 1 -0.0683,0.0327 z m -1.12634,-0.13641 h 0.98971 l -0.31824,-0.50612 h -0.95473 z"
         inkscape:connector-curvature="0"
         style="fill:#d1d3d4;stroke-width:0.26458332" />
      <path
         id="path919"
         d="m -423.02836,186.96638 h -1.61286 a 0.07997673,0.06548162 0 0 1 -0.0683,-0.0301 0.08164292,0.06684582 0 0 1 0,-0.0641 l 0.26326,-0.51976 a 0.0833091,0.06821002 0 0 1 0.0767,-0.0423 h 1.55787 a 0.08164292,0.06684582 0 0 1 0.0667,0.0286 0.07831055,0.06411742 0 0 1 0.0117,0.06 l -0.20828,0.51975 a 0.08164292,0.06684582 0 0 1 -0.0867,0.0478 z m -1.4879,-0.13642 h 1.42458 l 0.1533,-0.38333 h -1.38793 z"
         inkscape:connector-curvature="0"
         style="fill:#d1d3d4;stroke-width:0.26458332" />
      <path
         id="path921"
         d="m -425.15608,186.96638 h -1.35127 a 0.0833091,0.06821002 0 0 1 -0.0717,-0.0327 0.0833091,0.06821002 0 0 1 0,-0.0669 l 0.33323,-0.51976 a 0.07997673,0.06548162 0 0 1 0.0733,-0.0368 h 1.30462 a 0.07997673,0.06548162 0 0 1 0.07,0.0314 0.08164292,0.06684582 0 0 1 0,0.0641 l -0.27992,0.51976 a 0.08497528,0.06957423 0 0 1 -0.0784,0.041 z m -1.21464,-0.13642 h 1.16633 l 0.20827,-0.38333 h -1.128 z"
         inkscape:connector-curvature="0"
         style="fill:#d1d3d4;stroke-width:0.26458332" />
      <path
         id="path923"
         d="m -420.67903,186.96638 h -1.61288 a 0.08664147,0.07093842 0 0 1 -0.0667,-0.0273 0.08830765,0.07230263 0 0 1 -0.0134,-0.06 l 0.18327,-0.51976 a 0.0833091,0.06821002 0 0 1 0.08,-0.0491 h 1.55623 a 0.08664147,0.07093842 0 0 1 0.065,0.0246 0.08164292,0.06684582 0 0 1 0.0167,0.0573 l -0.12164,0.51975 a 0.08497528,0.06957423 0 0 1 -0.0867,0.0545 z m -1.49958,-0.13642 h 1.43459 l 0.0933,-0.38333 h -1.39292 z"
         inkscape:connector-curvature="0"
         style="fill:#d1d3d4;stroke-width:0.26458332" />
      <path
         id="path925"
         d="m -418.32973,186.96638 h -1.61286 a 0.08664147,0.07093842 0 0 1 -0.0834,-0.0791 l 0.10328,-0.51976 a 0.0833091,0.06821002 0 0 1 0.0817,-0.0573 h 1.55787 a 0.0833091,0.06821002 0 0 1 0.0834,0.0737 l -0.0483,0.51976 a 0.08164292,0.06684582 0 0 1 -0.0817,0.0628 z m -1.51455,-0.13642 h 1.43624 l 0.0349,-0.38333 h -1.39626 z"
         inkscape:connector-curvature="0"
         style="fill:#d1d3d4;stroke-width:0.26458332" />
      <path
         id="path927"
         d="m -415.98207,186.96638 h -1.61121 a 0.08497528,0.06957423 0 0 1 -0.06,-0.0205 0.07831055,0.06411742 0 0 1 -0.0234,-0.0504 l 0.0217,-0.51976 a 0.0833091,0.06821002 0 0 1 0.0834,-0.0654 h 1.55787 a 0.08497528,0.06957423 0 0 1 0.0834,0.0641 l 0.0316,0.51976 a 0.0833091,0.06821002 0 0 1 -0.0217,0.0504 0.08664147,0.07093842 0 0 1 -0.0616,0.0218 z m -1.52623,-0.13642 h 1.43958 l -0.025,-0.38333 h -1.39791 z"
         inkscape:connector-curvature="0"
         style="fill:#d1d3d4;stroke-width:0.26458332" />
      <path
         id="path929"
         d="m -413.63276,186.96638 h -1.61286 a 0.08164292,0.06684582 0 0 1 -0.0817,-0.0628 l -0.0583,-0.51976 a 0.08164292,0.06684582 0 0 1 0.0217,-0.0519 0.08497528,0.06957423 0 0 1 0.0617,-0.0218 h 1.55621 a 0.0833091,0.06821002 0 0 1 0.0834,0.056 l 0.11164,0.51976 a 0.07831055,0.06411742 0 0 1 -0.0184,0.0559 0.08164292,0.06684582 0 0 1 -0.0633,0.0246 z m -1.53622,-0.13642 h 1.43626 l -0.0817,-0.38333 h -1.39793 z"
         inkscape:connector-curvature="0"
         style="fill:#d1d3d4;stroke-width:0.26458332" />
      <path
         id="path931"
         d="m -411.28344,186.96638 h -1.61286 a 0.08497528,0.06957423 0 0 1 -0.0817,-0.0545 l -0.13663,-0.51839 a 0.07997673,0.06548162 0 0 1 0.015,-0.0573 0.08497528,0.06957423 0 0 1 0.065,-0.0259 h 1.55788 a 0.0833091,0.06821002 0 0 1 0.08,0.0478 l 0.19327,0.51976 a 0.09164001,0.07503103 0 0 1 -0.0134,0.0614 0.08497528,0.06957423 0 0 1 -0.0667,0.0273 z m -1.54622,-0.13642 h 1.43292 l -0.14162,-0.38333 h -1.38961 z"
         inkscape:connector-curvature="0"
         style="fill:#d1d3d4;stroke-width:0.26458332" />
      <path
         id="path933"
         d="m -408.92913,186.96638 h -1.61286 a 0.08497528,0.06957423 0 0 1 -0.0784,-0.0464 l -0.21827,-0.51976 a 0.08497528,0.06957423 0 0 1 0.01,-0.0614 0.08664147,0.07093842 0 0 1 0.0683,-0.0286 h 1.55788 a 0.08497528,0.06957423 0 0 1 0.0767,0.041 l 0.27326,0.51976 a 0.08164292,0.06684582 0 0 1 -0.008,0.0641 0.0833091,0.06821002 0 0 1 -0.0683,0.0314 z m -1.55287,-0.13642 h 1.42625 l -0.20661,-0.38333 h -1.38626 z"
         inkscape:connector-curvature="0"
         style="fill:#d1d3d4;stroke-width:0.26458332" />
      <path
         id="path935"
         d="m -407.36125,186.96638 h -1.05969 a 0.08497528,0.06957423 0 0 1 -0.0767,-0.0395 l -0.28993,-0.51976 a 0.0833091,0.06821002 0 0 1 0.075,-0.0968 h 1.02304 a 0.0833091,0.06821002 0 0 1 0.075,0.0368 l 0.33323,0.51976 a 0.0833091,0.06821002 0 0 1 0,0.0669 0.08164292,0.06684582 0 0 1 -0.08,0.0327 z m -0.9997,-0.13642 h 0.86974 l -0.2416,-0.38333 h -0.84309 z"
         inkscape:connector-curvature="0"
         style="fill:#d1d3d4;stroke-width:0.26458332" />
      <path
         id="path937"
         d="m -426.2291,189.73571 h -2.0194 a 0.0833091,0.06821002 0 0 1 -0.0717,-0.0327 0.0833091,0.06821002 0 0 1 0,-0.0669 l 0.45321,-0.72166 a 0.08664147,0.07093842 0 0 1 0.075,-0.0368 h 1.93944 a 0.08664147,0.07093842 0 0 1 0.07,0.0314 0.08164292,0.06684582 0 0 1 0,0.0641 l -0.36823,0.72167 a 0.08497528,0.06957423 0 0 1 -0.0784,0.041 z m -1.88277,-0.13642 h 1.83279 l 0.30325,-0.58524 h -1.76949 z"
         inkscape:connector-curvature="0"
         style="fill:#d1d3d4;stroke-width:0.26458332" />
      <path
         id="path939"
         d="m -423.28495,189.73571 h -2.02107 a 0.0833091,0.06821002 0 0 1 -0.0683,-0.0301 0.0833091,0.06821002 0 0 1 -0.008,-0.0628 l 0.33324,-0.72166 a 0.0833091,0.06821002 0 0 1 0.0784,-0.0436 h 1.93944 a 0.08497528,0.06957423 0 0 1 0.0667,0.0273 0.07831055,0.06411742 0 0 1 0.0134,0.06 l -0.25493,0.72166 a 0.0833091,0.06821002 0 0 1 -0.0784,0.0491 z m -1.89945,-0.13642 h 1.8328 l 0.20661,-0.58524 h -1.76782 z"
         inkscape:connector-curvature="0"
         style="fill:#d1d3d4;stroke-width:0.26458332" />
      <path
         id="path941"
         d="m -414.34755,189.73571 h -8.01434 a 0.08164292,0.06684582 0 0 1 -0.065,-0.0259 0.08497528,0.06957423 0 0 1 -0.015,-0.0587 l 0.2166,-0.72166 a 0.08497528,0.06957423 0 0 1 0.0817,-0.0519 h 7.69276 a 0.08164292,0.06684582 0 0 1 0.0817,0.06 l 0.10496,0.72166 a 0.0833091,0.06821002 0 0 1 -0.0217,0.0532 0.07997673,0.06548162 0 0 1 -0.0616,0.0231 z m -7.9077,-0.13642 h 7.8144 l -0.0849,-0.58524 h -7.55281 z"
         inkscape:connector-curvature="0"
         style="fill:#d1d3d4;stroke-width:0.26458332" />
      <path
         id="path943"
         d="m -411.50838,189.73571 h -2.02107 a 0.0833091,0.06821002 0 0 1 -0.0817,-0.0573 l -0.13663,-0.72167 a 0.08164292,0.06684582 0 0 1 0.0184,-0.0545 0.08497528,0.06957423 0 0 1 0.0633,-0.0246 h 1.93944 a 0.08497528,0.06957423 0 0 1 0.0817,0.0519 l 0.2166,0.72166 a 0.07997673,0.06548162 0 0 1 -0.015,0.0587 0.08164292,0.06684582 0 0 1 -0.065,0.0259 z m -1.94943,-0.13642 h 1.8428 l -0.17662,-0.58661 h -1.77614 z"
         inkscape:connector-curvature="0"
         style="fill:#d1d3d4;stroke-width:0.26458332" />
      <path
         id="path945"
         d="m -408.56423,189.73571 h -2.02108 a 0.0833091,0.06821002 0 0 1 -0.08,-0.0491 l -0.25493,-0.72166 a 0.08830765,0.07230263 0 0 1 0.0134,-0.06 0.08997383,0.07366682 0 0 1 0.0667,-0.0273 h 1.93944 a 0.0833091,0.06821002 0 0 1 0.0784,0.0436 l 0.33324,0.72166 a 0.08830765,0.07230263 0 0 1 -0.01,0.0628 0.08164292,0.06684582 0 0 1 -0.065,0.0301 z m -1.95776,-0.13642 h 1.83279 l -0.26825,-0.58661 h -1.77115 z"
         inkscape:connector-curvature="0"
         style="fill:#d1d3d4;stroke-width:0.26458332" />
      <path
         id="path947"
         d="m -405.62009,189.73571 h -2.02108 a 0.08497528,0.06957423 0 0 1 -0.0767,-0.041 l -0.37823,-0.72167 a 0.08164292,0.06684582 0 0 1 0.008,-0.0641 0.0833091,0.06821002 0 0 1 0.0683,-0.0314 h 1.94109 a 0.08664147,0.07093842 0 0 1 0.0733,0.0368 l 0.45321,0.72166 a 0.0833091,0.06821002 0 0 1 0,0.0669 0.08664147,0.07093842 0 0 1 -0.0683,0.0327 z m -1.96609,-0.13642 h 1.83279 l -0.37155,-0.58661 h -1.76282 z"
         inkscape:connector-curvature="0"
         style="fill:#d1d3d4;stroke-width:0.26458332" />
      <rect
         id="rect949"
         height="0.55386537"
         width="26.290686"
         y="190.32503"
         x="-430.07965"
         style="fill:#231f20;stroke-width:0.26458332" />
      <path
         id="path951"
         d="m -403.78895,190.94712 h -26.29069 a 0.0833091,0.06821002 0 0 1 -0.0834,-0.0682 v -0.55387 a 0.0833091,0.06821002 0 0 1 0.0834,-0.0682 h 26.29069 a 0.08497528,0.06957423 0 0 1 0.0832,0.0682 v 0.55387 a 0.0833091,0.06821002 0 0 1 -0.0832,0.0682 z m -26.20738,-0.13641 h 26.12407 v -0.41745 h -26.12407 z"
         inkscape:connector-curvature="0"
         style="fill:#14162b;fill-opacity:1;stroke-width:0.26458332" />
      <path
         id="path953"
         d="m -399.25527,185.49305 c 0,0 -0.42155,-0.54568 -1.03304,-0.53341"
         inkscape:connector-curvature="0"
         style="fill:#ffffff;stroke-width:0.26458332" />
      <path
         id="path955"
         d="m -399.25527,185.56126 a 0.08164292,0.06684582 0 0 1 -0.07,-0.0314 c 0,0 -0.40154,-0.50204 -0.95139,-0.50204 h -0.01 a 0.0833091,0.06821002 0 0 1 -0.0834,-0.0682 0.08164292,0.06684582 0 0 1 0.0817,-0.0682 h 0.0117 c 0.64149,0 1.07303,0.54567 1.09136,0.56477 a 0.0833091,0.06821002 0 0 1 -0.025,0.0941 0.08830765,0.07230263 0 0 1 -0.045,0.0111 z"
         inkscape:connector-curvature="0"
         style="fill:#14162b;fill-opacity:1;stroke-width:0.26458332" />
      <rect
         id="rect957"
         height="9.4088907"
         width="16.145304"
         y="173.15111"
         x="-442.75763"
         style="fill:#ffffff;stroke-width:0.26458332" />
      <path
         id="path959"
         d="m -426.61398,182.62822 h -16.13864 a 0.0833091,0.06821002 0 0 1 -0.0834,-0.0682 v -9.41299 a 0.0833091,0.06821002 0 0 1 0.0834,-0.0682 h 16.14364 a 0.0833091,0.06821002 0 0 1 0.0834,0.0682 v 9.41299 a 0.0833091,0.06821002 0 0 1 -0.0883,0.0682 z m -16.06033,-0.13641 h 15.97702 v -9.27656 h -15.97702 z"
         inkscape:connector-curvature="0"
         style="fill:#14162b;fill-opacity:1;stroke-width:0.26458332" />
      <path
         id="path961"
         d="m -426.61398,174.14972 h -16.13864 a 0.0833091,0.06821002 0 0 1 -0.0834,-0.0682 0.0833091,0.06821002 0 0 1 0.0834,-0.0682 h 16.14364 a 0.0833091,0.06821002 0 0 1 0.0834,0.0682 0.0833091,0.06821002 0 0 1 -0.0883,0.0682 z"
         inkscape:connector-curvature="0"
         style="fill:#14162b;fill-opacity:1;stroke-width:0.26458332" />
      <path
         id="path963"
         d="m -439.37194,174.90276 h -1.97108 a 0.0833091,0.06821002 0 0 1 -0.0834,-0.0682 0.0833091,0.06821002 0 0 1 0.0834,-0.0682 h 1.97108 a 0.0833091,0.06821002 0 0 1 0.0832,0.0682 0.0833091,0.06821002 0 0 1 -0.0832,0.0682 z"
         inkscape:connector-curvature="0"
         style="fill:#d1d3d4;stroke-width:0.26458332" />
      <path
         id="path965"
         d="m -434.39838,174.90276 h -3.93552 a 0.08497528,0.06957423 0 0 1 -0.0833,-0.0682 0.0833091,0.06821002 0 0 1 0.0833,-0.0682 h 3.93552 a 0.0833091,0.06821002 0 0 1 0.0833,0.0682 0.0833091,0.06821002 0 0 1 -0.0833,0.0682 z"
         inkscape:connector-curvature="0"
         style="fill:#ff0000;fill-opacity:1;stroke-width:0.26458332" />
      <path
         id="path967"
         d="m -433.21373,175.73902 h -3.93552 a 0.0833091,0.06821002 0 0 1 -0.0834,-0.0682 0.08497528,0.06957423 0 0 1 0.0834,-0.0682 h 3.93552 a 0.0833091,0.06821002 0 0 1 0.0834,0.0682 0.0833091,0.06821002 0 0 1 -0.0834,0.0682 z"
         inkscape:connector-curvature="0"
         style="fill:#ff0000;fill-opacity:1;stroke-width:0.26458332" />
      <path
         id="path969"
         d="m -438.90873,175.73902 h -1.97276 a 0.0833091,0.06821002 0 0 1 -0.0834,-0.0682 0.08497528,0.06957423 0 0 1 0.0834,-0.0682 h 1.97276 a 0.0833091,0.06821002 0 0 1 0.0834,0.0682 0.0833091,0.06821002 0 0 1 -0.0834,0.0682 z"
         inkscape:connector-curvature="0"
         style="fill:#d1d3d4;stroke-width:0.26458332" />
      <path
         id="path971"
         d="m -438.83375,176.57664 h -1.58621 a 0.0833091,0.06821002 0 0 1 -0.0834,-0.0682 0.08497528,0.06957423 0 0 1 0.0834,-0.0682 h 1.58454 a 0.0833091,0.06821002 0 0 1 0.0832,0.0682 0.0833091,0.06821002 0 0 1 -0.0817,0.0682 z"
         inkscape:connector-curvature="0"
         style="fill:#d1d3d4;stroke-width:0.26458332" />
      <path
         id="path973"
         d="m -432.50893,176.57664 h -4.92691 a 0.0833091,0.06821002 0 0 1 -0.0834,-0.0682 0.08497528,0.06957423 0 0 1 0.0834,-0.0682 h 4.92691 a 0.08497528,0.06957423 0 0 1 0.0834,0.0682 0.0833091,0.06821002 0 0 1 -0.0834,0.0682 z"
         inkscape:connector-curvature="0"
         style="fill:#ff0000;fill-opacity:1;stroke-width:0.26458332" />
      <path
         id="path975"
         d="m -437.98234,177.41699 h -1.97276 a 0.0833091,0.06821002 0 0 1 -0.0833,-0.0682 0.0833091,0.06821002 0 0 1 0.0833,-0.0682 h 1.97276 a 0.08497528,0.06957423 0 0 1 0.0834,0.0682 0.0833091,0.06821002 0 0 1 -0.0834,0.0682 z"
         inkscape:connector-curvature="0"
         style="fill:#d1d3d4;stroke-width:0.26458332" />
      <path
         id="path977"
         d="m -431.4909,177.41699 h -5.85663 a 0.0833091,0.06821002 0 0 1 -0.0834,-0.0682 0.0833091,0.06821002 0 0 1 0.0834,-0.0682 h 5.85663 a 0.0833091,0.06821002 0 0 1 0.0834,0.0682 0.0833091,0.06821002 0 0 1 -0.0834,0.0682 z"
         inkscape:connector-curvature="0"
         style="fill:#ff0000;fill-opacity:1;stroke-width:0.26458332" />
      <path
         id="path979"
         d="m -438.50552,178.25187 h -1.97276 a 0.08330929,0.06821018 0 0 1 0,-0.13641 h 1.97276 a 0.08330929,0.06821018 0 1 1 0,0.13641 z"
         inkscape:connector-curvature="0"
         style="fill:#d1d3d4;stroke-width:0.26458332" />
      <path
         id="path981"
         d="m -434.575,178.25187 h -3.17908 a 0.08330929,0.06821018 0 1 1 0,-0.13641 h 3.17908 a 0.08330929,0.06821018 0 0 1 0,0.13641 z"
         inkscape:connector-curvature="0"
         style="fill:#ff0000;fill-opacity:1;stroke-width:0.26458332" />
      <path
         id="path983"
         d="m -430.18628,178.25187 h -3.17574 a 0.08330929,0.06821018 0 0 1 0,-0.13641 h 3.17574 a 0.08330929,0.06821018 0 1 1 0,0.13641 z"
         inkscape:connector-curvature="0"
         style="fill:#ff0000;fill-opacity:1;stroke-width:0.26458332" />
      <path
         id="path985"
         d="m -439.79848,179.08949 h -0.6798 a 0.0833128,0.06821305 0 0 1 0,-0.13642 h 0.6798 a 0.0833128,0.06821305 0 0 1 0,0.13642 z"
         inkscape:connector-curvature="0"
         style="fill:#d1d3d4;stroke-width:0.26458332" />
      <path
         id="path987"
         d="m -434.575,179.08949 h -4.06548 a 0.0833128,0.06821305 0 0 1 0,-0.13642 h 4.06548 a 0.0833128,0.06821305 0 0 1 0,0.13642 z"
         inkscape:connector-curvature="0"
         style="fill:#ff0000;fill-opacity:1;stroke-width:0.26458332" />
      <path
         id="path989"
         d="m -432.97213,179.08949 h -1.13467 a 0.0833128,0.06821305 0 1 1 0,-0.13642 h 1.13467 a 0.0833128,0.06821305 0 0 1 0,0.13642 z"
         inkscape:connector-curvature="0"
         style="fill:#ff0000;fill-opacity:1;stroke-width:0.26458332" />
      <path
         id="path991"
         d="m -439.41025,179.92711 h -1.06803 a 0.08497528,0.06957423 0 0 1 -0.0832,-0.0682 0.0833091,0.06821002 0 0 1 0.0832,-0.0682 h 1.06803 a 0.0833091,0.06821002 0 0 1 0.0834,0.0682 0.08497528,0.06957423 0 0 1 -0.0834,0.0682 z"
         inkscape:connector-curvature="0"
         style="fill:#d1d3d4;stroke-width:0.26458332" />
      <path
         id="path993"
         d="m -433.57862,179.92711 h -4.83193 a 0.0833091,0.06821002 0 0 1 -0.0833,-0.0682 0.0833091,0.06821002 0 0 1 0.0833,-0.0682 h 4.83193 a 0.0833091,0.06821002 0 0 1 0.0834,0.0682 0.08497528,0.06957423 0 0 1 -0.0834,0.0682 z"
         inkscape:connector-curvature="0"
         style="fill:#ff0000;fill-opacity:1;stroke-width:0.26458332" />
      <path
         id="path995"
         d="m -431.12933,179.92711 h -1.97276 a 0.0833091,0.06821002 0 0 1 -0.0834,-0.0682 0.0833091,0.06821002 0 0 1 0.0834,-0.0682 h 1.97276 a 0.0833091,0.06821002 0 0 1 0.0833,0.0682 0.08497528,0.06957423 0 0 1 -0.0833,0.0682 z"
         inkscape:connector-curvature="0"
         style="fill:#ff0000;fill-opacity:1;stroke-width:0.26458332" />
      <path
         id="path997"
         d="m -439.89511,180.76473 h -1.04637 a 0.08497528,0.06957423 0 0 1 -0.0834,-0.0682 0.0833091,0.06821002 0 0 1 0.0834,-0.0682 h 1.04637 a 0.0833091,0.06821002 0 0 1 0.0834,0.0682 0.0833091,0.06821002 0 0 1 -0.0834,0.0682 z"
         inkscape:connector-curvature="0"
         style="fill:#d1d3d4;stroke-width:0.26458332" />
      <path
         id="path999"
         d="m -434.1068,180.76473 h -4.56867 a 0.0833091,0.06821002 0 0 1 -0.0834,-0.0682 0.0833091,0.06821002 0 0 1 0.0834,-0.0682 h 4.56867 a 0.0833091,0.06821002 0 0 1 0.0834,0.0682 0.0833091,0.06821002 0 0 1 -0.0834,0.0682 z"
         inkscape:connector-curvature="0"
         style="fill:#ff0000;fill-opacity:1;stroke-width:0.26458332" />
      <path
         id="path1001"
         d="m -438.96872,181.60099 h -1.97276 a 0.0833091,0.06821002 0 0 1 -0.0834,-0.0682 0.08497528,0.06957423 0 0 1 0.0834,-0.0682 h 1.97276 a 0.0833091,0.06821002 0 0 1 0.0834,0.0682 0.0833091,0.06821002 0 0 1 -0.0834,0.0682 z"
         inkscape:connector-curvature="0"
         style="fill:#d1d3d4;stroke-width:0.26458332" />
      <path
         id="path1003"
         d="m -428.02857,177.41699 h -2.66588 a 0.0833091,0.06821002 0 0 1 -0.0834,-0.0682 0.0833091,0.06821002 0 0 1 0.0834,-0.0682 h 2.66588 a 0.0833091,0.06821002 0 0 1 0.0834,0.0682 0.0833091,0.06821002 0 0 1 -0.0834,0.0682 z"
         inkscape:connector-curvature="0"
         style="fill:#ff0000;fill-opacity:1;stroke-width:0.26458332" />
      <path
         id="path1005"
         d="m -432.03407,174.90685 c -0.75977,0 -1.31961,0 -1.34461,0 a 0.08497528,0.06957423 0 0 1 -0.065,-0.0818 0.08497528,0.06957423 0 0 1 0.0933,-0.0532 c 0.1283,0.007 3.25405,0 4.45203,0 v 0 a 0.0833091,0.06821002 0 0 1 0.0834,0.0669 0.08497528,0.06957423 0 0 1 -0.0834,0.0696 z"
         inkscape:connector-curvature="0"
         style="fill:#ff0000;fill-opacity:1;stroke-width:0.26458332" />
      <path
         id="path1007"
         d="m -431.5892,180.76473 h -1.99942 a 0.0833091,0.06821002 0 0 1 -0.0834,-0.0682 0.0833091,0.06821002 0 0 1 0.0834,-0.0682 h 1.99942 a 0.0833091,0.06821002 0 0 1 0.0834,0.0682 0.0833091,0.06821002 0 0 1 -0.0834,0.0682 z"
         inkscape:connector-curvature="0"
         style="fill:#ff0000;fill-opacity:1;stroke-width:0.26458332" />
      <path
         id="path1009"
         d="m -436.16287,181.60099 h -1.46624 a 0.0833091,0.06821002 0 0 1 -0.0833,-0.0682 0.0833091,0.06821002 0 0 1 0.0833,-0.0682 h 1.46624 a 0.0833091,0.06821002 0 0 1 0.0834,0.0682 0.0833091,0.06821002 0 0 1 -0.0834,0.0682 z"
         inkscape:connector-curvature="0"
         style="fill:#ff0000;fill-opacity:1;stroke-width:0.26458332" />
      <path
         id="path1011"
         d="m -432.11571,181.60099 h -3.48899 a 0.0833091,0.06821002 0 0 1 -0.0834,-0.0682 0.0833091,0.06821002 0 0 1 0.0834,-0.0682 h 3.48899 a 0.08497528,0.06957423 0 0 1 0.0834,0.0682 0.0833091,0.06821002 0 0 1 -0.0834,0.0682 z"
         inkscape:connector-curvature="0"
         style="fill:#ff0000;fill-opacity:1;stroke-width:0.26458332" />
      <rect
         id="rect1013"
         height="5.0680051"
         width="6.9329839"
         y="162.79138"
         x="-401.16138"
         style="fill:#ffffff;stroke-width:0.26458332" />
      <path
         id="path1015"
         d="m -394.2284,167.9276 h -6.93299 a 0.0833091,0.06821002 0 0 1 -0.0834,-0.0682 v -5.068 a 0.08497528,0.06957423 0 0 1 0.0834,-0.0682 h 6.93299 a 0.0833091,0.06821002 0 0 1 0.0833,0.0682 v 5.068 a 0.0833091,0.06821002 0 0 1 -0.0833,0.0682 z m -6.84967,-0.13642 h 6.76636 v -4.93159 h -6.76636 z"
         inkscape:connector-curvature="0"
         style="fill:#14162b;fill-opacity:1;stroke-width:0.26458332" />
      <path
         id="path1017"
         d="m -394.2284,163.5417 h -6.93299 a 0.08497528,0.06957423 0 0 1 -0.0834,-0.0682 0.0833091,0.06821002 0 0 1 0.0834,-0.0682 h 6.93299 a 0.0833091,0.06821002 0 0 1 0.0833,0.0682 0.0833091,0.06821002 0 0 1 -0.0833,0.0682 z"
         inkscape:connector-curvature="0"
         style="fill:#14162b;fill-opacity:1;stroke-width:0.26458332" />
      <path
         id="path1019"
         d="m -400.17834,165.66985 v -0.21827 l 1.23464,-0.60843 0.20995,0.27284 -0.92807,0.442 0.92807,0.44472 -0.20995,0.27285 z"
         inkscape:connector-curvature="0"
         style="fill:#14162b;fill-opacity:1;stroke-width:0.26458332" />
      <path
         id="path1021"
         d="m -398.56547,166.51293 1.46457,-2.04631 0.27659,0.13643 -1.46124,2.03538 z"
         inkscape:connector-curvature="0"
         style="fill:#14162b;fill-opacity:1;stroke-width:0.26458332" />
      <path
         id="path1023"
         d="m -396.65603,166.00544 0.92807,-0.44472 -0.92807,-0.442 0.20995,-0.27285 1.2363,0.60844 v 0.21827 l -1.2363,0.60844 z"
         inkscape:connector-curvature="0"
         style="fill:#14162b;fill-opacity:1;stroke-width:0.26458332" />
      <rect
         id="rect1025"
         height="5.4854498"
         width="10.223693"
         y="158.72333"
         x="-438.32724"
         style="fill:#ffffff;stroke-width:0.26458332" />
      <path
         id="path1027"
         d="m -428.10355,164.277 h -10.22369 a 0.0833091,0.06821002 0 0 1 -0.0834,-0.0682 v -5.48136 a 0.08497528,0.06957423 0 0 1 0.0834,-0.0682 h 10.22369 a 0.0833091,0.06821002 0 0 1 0.0834,0.0682 v 5.48136 a 0.0833091,0.06821002 0 0 1 -0.0834,0.0682 z m -10.14038,-0.13642 h 10.05708 v -5.34903 h -10.05708 z"
         inkscape:connector-curvature="0"
         style="fill:#14162b;fill-opacity:1;stroke-width:0.26458332" />
      <path
         id="path1029"
         d="m -428.10355,159.33451 h -10.22369 a 0.08331518,0.068215 0 0 1 0,-0.13643 h 10.22369 a 0.08331518,0.068215 0 0 1 0,0.13643 z"
         inkscape:connector-curvature="0"
         style="fill:#14162b;fill-opacity:1;stroke-width:0.26458332" />
      <path
         id="path1031"
         d="m -436.18119,159.77378 h -1.24964 a 0.0833091,0.06821002 0 0 1 -0.0834,-0.0682 0.0833091,0.06821002 0 0 1 0.0834,-0.0682 h 1.24964 a 0.0833091,0.06821002 0 0 1 0.0834,0.0682 0.08497528,0.06957423 0 0 1 -0.0834,0.0682 z"
         inkscape:connector-curvature="0"
         style="fill:#14162b;fill-opacity:1;stroke-width:0.26458332" />
      <path
         id="path1033"
         d="m -433.03212,159.77378 h -2.49926 a 0.08497528,0.06957423 0 0 1 -0.0834,-0.0682 0.0833091,0.06821002 0 0 1 0.0834,-0.0682 h 2.49926 a 0.0833091,0.06821002 0 0 1 0.0834,0.0682 0.0833091,0.06821002 0 0 1 -0.0834,0.0682 z"
         inkscape:connector-curvature="0"
         style="fill:#14162b;fill-opacity:1;stroke-width:0.26458332" />
      <path
         id="path1035"
         d="m -432.28233,160.39995 h -2.49928 a 0.0833091,0.06821002 0 0 1 -0.0833,-0.0682 0.08497528,0.06957423 0 0 1 0.0833,-0.0682 h 2.49928 a 0.0833091,0.06821002 0 0 1 0.0832,0.0682 0.0833091,0.06821002 0 0 1 -0.0832,0.0682 z"
         inkscape:connector-curvature="0"
         style="fill:#14162b;fill-opacity:1;stroke-width:0.26458332" />
      <path
         id="path1037"
         d="m -435.88795,160.39995 h -1.24964 a 0.0833091,0.06821002 0 0 1 -0.0832,-0.0682 0.0833091,0.06821002 0 0 1 0.0832,-0.0682 h 1.24964 a 0.08497528,0.06957423 0 0 1 0.0834,0.0682 0.0833091,0.06821002 0 0 1 -0.0834,0.0682 z"
         inkscape:connector-curvature="0"
         style="fill:#14162b;fill-opacity:1;stroke-width:0.26458332" />
      <path
         id="path1039"
         d="m -435.8413,161.02748 h -0.99971 a 0.0833091,0.06821002 0 0 1 -0.0832,-0.0682 0.0833091,0.06821002 0 0 1 0.0832,-0.0682 h 0.99971 a 0.0833091,0.06821002 0 0 1 0.0833,0.0682 0.0833091,0.06821002 0 0 1 -0.0833,0.0682 z"
         inkscape:connector-curvature="0"
         style="fill:#14162b;fill-opacity:1;stroke-width:0.26458332" />
      <path
         id="path1041"
         d="m -431.83579,161.02748 h -3.12076 a 0.08497528,0.06957423 0 0 1 -0.0834,-0.0682 0.0833091,0.06821002 0 0 1 0.0834,-0.0682 h 3.12076 a 0.0833091,0.06821002 0 0 1 0.0834,0.0682 0.08497528,0.06957423 0 0 1 -0.0834,0.0682 z"
         inkscape:connector-curvature="0"
         style="fill:#14162b;fill-opacity:1;stroke-width:0.26458332" />
      <path
         id="path1043"
         d="m -435.30313,161.65365 h -1.24796 a 0.0833091,0.06821002 0 0 1 -0.0832,-0.0682 0.0833091,0.06821002 0 0 1 0.0832,-0.0682 h 1.24796 a 0.0833091,0.06821002 0 0 1 0.0834,0.0682 0.0833091,0.06821002 0 0 1 -0.0834,0.0682 z"
         inkscape:connector-curvature="0"
         style="fill:#14162b;fill-opacity:1;stroke-width:0.26458332" />
      <path
         id="path1045"
         d="m -431.19098,161.65365 h -3.70892 a 0.0833091,0.06821002 0 0 1 -0.0833,-0.0682 0.0833091,0.06821002 0 0 1 0.0833,-0.0682 h 3.70892 a 0.08497528,0.06957423 0 0 1 0.0834,0.0682 0.0833091,0.06821002 0 0 1 -0.0834,0.0682 z"
         inkscape:connector-curvature="0"
         style="fill:#14162b;fill-opacity:1;stroke-width:0.26458332" />
      <path
         id="path1047"
         d="m -435.63303,162.28118 h -1.24962 a 0.08331518,0.068215 0 0 1 0,-0.13643 h 1.24962 a 0.08331518,0.068215 0 0 1 0,0.13643 z"
         inkscape:connector-curvature="0"
         style="fill:#14162b;fill-opacity:1;stroke-width:0.26458332" />
      <path
         id="path1049"
         d="m -433.14375,162.28118 h -2.01107 a 0.08331518,0.068215 0 0 1 0,-0.13643 h 2.01107 a 0.08331518,0.068215 0 0 1 0,0.13643 z"
         inkscape:connector-curvature="0"
         style="fill:#14162b;fill-opacity:1;stroke-width:0.26458332" />
      <path
         id="path1051"
         d="m -430.36455,162.28118 h -2.01109 a 0.08331518,0.068215 0 0 1 0,-0.13643 h 2.01109 a 0.08331518,0.068215 0 0 1 0,0.13643 z"
         inkscape:connector-curvature="0"
         style="fill:#d1d3d4;stroke-width:0.26458332" />
      <path
         id="path1053"
         d="m -436.45279,162.90871 h -0.42986 a 0.0833091,0.06821002 0 0 1 -0.0834,-0.0682 0.0833091,0.06821002 0 0 1 0.0834,-0.0682 h 0.42986 a 0.0833091,0.06821002 0 0 1 0.0834,0.0682 0.0833091,0.06821002 0 0 1 -0.0834,0.0682 z"
         inkscape:connector-curvature="0"
         style="fill:#14162b;fill-opacity:1;stroke-width:0.26458332" />
      <path
         id="path1055"
         d="m -433.14375,162.90871 h -2.57591 a 0.08497528,0.06957423 0 0 1 -0.0834,-0.0682 0.0833091,0.06821002 0 0 1 0.0834,-0.0682 h 2.57591 a 0.0833091,0.06821002 0 0 1 0.0834,0.0682 0.0833091,0.06821002 0 0 1 -0.0834,0.0682 z"
         inkscape:connector-curvature="0"
         style="fill:#14162b;fill-opacity:1;stroke-width:0.26458332" />
      <path
         id="path1057"
         d="m -431.7958,162.90871 h -0.71814 a 0.0833091,0.06821002 0 0 1 -0.0834,-0.0682 0.0833091,0.06821002 0 0 1 0.0834,-0.0682 h 0.71814 a 0.0833091,0.06821002 0 0 1 0.0834,0.0682 0.08497528,0.06957423 0 0 1 -0.0834,0.0682 z"
         inkscape:connector-curvature="0"
         style="fill:#d1d3d4;stroke-width:0.26458332" />
      <path
         id="path1059"
         d="m -436.20619,163.53488 h -0.67646 a 0.08331518,0.068215 0 0 1 0,-0.13643 h 0.67646 a 0.08331518,0.068215 0 0 1 0,0.13643 z"
         inkscape:connector-curvature="0"
         style="fill:#14162b;fill-opacity:1;stroke-width:0.26458332" />
      <path
         id="path1061"
         d="m -432.51394,163.53488 h -3.05577 a 0.08331518,0.068215 0 0 1 0,-0.13643 h 3.05577 a 0.08331518,0.068215 0 0 1 0,0.13643 z"
         inkscape:connector-curvature="0"
         style="fill:#14162b;fill-opacity:1;stroke-width:0.26458332" />
      <path
         id="path1063"
         d="m -430.62948,163.53488 h -1.24964 a 0.08331518,0.068215 0 0 1 0,-0.13643 h 1.24964 a 0.08331518,0.068215 0 0 1 0,0.13643 z"
         inkscape:connector-curvature="0"
         style="fill:#d1d3d4;stroke-width:0.26458332" />
      <path
         id="path1065"
         d="m -428.99829,161.65365 h -1.68951 a 0.0833091,0.06821002 0 0 1 -0.0832,-0.0682 0.08497528,0.06957423 0 0 1 0.0832,-0.0682 h 1.68951 a 0.0833091,0.06821002 0 0 1 0.0834,0.0682 0.0833091,0.06821002 0 0 1 -0.0834,0.0682 z"
         inkscape:connector-curvature="0"
         style="fill:#d1d3d4;stroke-width:0.26458332" />
      <path
         id="path1067"
         d="m -431.51922,159.77651 c -0.85142,0 -0.86808,0 -0.87641,0 a 0.08497528,0.06957423 0 0 1 -0.0617,-0.0819 0.08164292,0.06684582 0 0 1 0.0916,-0.0519 c 0.0933,0 1.73117,0 2.81585,0 v 0 a 0.08164292,0.06684582 0 0 1 0.0834,0.0669 0.08497528,0.06957423 0 0 1 -0.0834,0.0696 z"
         inkscape:connector-curvature="0"
         style="fill:#d1d3d4;stroke-width:0.26458332" />
      <path
         d="m -428.90825,170.04715 v 0.75648 l -1.45814,-1.33311 v -0.63943 l 1.45814,-1.33025 v 0.75647 l -1.00928,0.8935 z"
         style="font-style:normal;font-variant:normal;font-weight:normal;font-stretch:normal;font-size:20.74649429px;line-height:0;font-family:'Rockwell Extra Bold';-inkscape-font-specification:'Rockwell Extra Bold, ';letter-spacing:0px;word-spacing:0px;fill:#ffffff;fill-opacity:1;stroke:none;stroke-width:0.26458332"
         id="path3325"
         inkscape:connector-curvature="0" />
      <path
         d="m -428.44901,171.22039 h -0.30097 l 0.43978,-4.11349 h 0.30486 z"
         style="font-style:normal;font-variant:normal;font-weight:normal;font-stretch:normal;font-size:20.74649429px;line-height:0;font-family:'Rockwell Extra Bold';-inkscape-font-specification:'Rockwell Extra Bold, ';letter-spacing:0px;word-spacing:0px;fill:#ffffff;fill-opacity:1;stroke:none;stroke-width:0.26458332"
         id="path3327"
         inkscape:connector-curvature="0" />
      <path
         d="m -427.01292,168.05749 v 0.74505 h 0.13621 q 0.14271,0 0.20757,-0.0742 0.0622,-0.0742 0.0622,-0.28831 0,-0.13988 -0.0337,-0.23694 -0.0324,-0.0942 -0.0869,-0.11989 -0.0519,-0.0257 -0.17642,-0.0257 z m 0.18162,3.10011 h -1.05469 v -0.95058 h 0.17514 v -2.0696 h -0.17514 v -0.95059 h 1.10658 q 0.3814,0 0.55782,0.16272 0.17644,0.16556 0.25947,0.45102 0.083,0.28546 0.083,0.62516 0,0.41963 -0.0986,0.69653 -0.0986,0.27975 -0.26076,0.40535 -0.15956,0.12275 -0.49296,0.12275 h -0.28151 v 0.55666 h 0.18162 z"
         style="font-style:normal;font-variant:normal;font-weight:normal;font-stretch:normal;font-size:20.74649429px;line-height:0;font-family:'Rockwell Extra Bold';-inkscape-font-specification:'Rockwell Extra Bold, ';letter-spacing:0px;word-spacing:0px;fill:#ffffff;fill-opacity:1;stroke:none;stroke-width:0.26458332"
         id="path3329"
         inkscape:connector-curvature="0" />
      <path
         d="m -424.85165,168.05749 v 0.75647 h 0.0778 q 0.15308,0 0.20756,-0.02 0.0584,-0.02 0.0986,-0.11418 0.0402,-0.0885 0.0402,-0.24265 0,-0.15414 -0.0402,-0.24549 -0.0402,-0.0942 -0.1025,-0.11418 -0.0597,-0.02 -0.21794,-0.02 z m 0.13622,3.10011 h -0.98075 v -0.95058 h 0.1466 v -2.0696 h -0.1466 v -0.95059 h 0.98075 q 0.13231,0 0.24518,0.0115 0.11286,0.009 0.19329,0.0286 0.0805,0.0171 0.14789,0.0485 0.1894,0.0885 0.30746,0.38538 0.11934,0.30259 0.11934,0.71364 0,0.3083 -0.0727,0.55951 -0.0727,0.24836 -0.19071,0.36539 l 0.24908,0.90776 h 0.12973 v 0.95059 h -0.64993 l -0.39308,-1.62142 h -0.22183 v 0.67083 h 0.13621 z"
         style="font-style:normal;font-variant:normal;font-weight:normal;font-stretch:normal;font-size:20.74649429px;line-height:0;font-family:'Rockwell Extra Bold';-inkscape-font-specification:'Rockwell Extra Bold, ';letter-spacing:0px;word-spacing:0px;fill:#ffffff;fill-opacity:1;stroke:none;stroke-width:0.26458332"
         id="path3331"
         inkscape:connector-curvature="0" />
      <path
         d="m -422.67028,169.16223 q 0,0.66226 0.0583,0.89349 0.0558,0.23408 0.17514,0.23408 0.11805,0 0.17643,-0.22552 0.0584,-0.22837 0.0584,-0.90205 0,-0.65372 -0.0571,-0.89064 -0.0558,-0.23408 -0.17773,-0.23408 -0.11675,0 -0.17514,0.22551 -0.0583,0.22551 -0.0583,0.89921 z m -0.78355,0 q 0,-0.49671 0.11029,-0.96201 0.10896,-0.46245 0.3386,-0.77931 0.0817,-0.11133 0.16734,-0.17698 0.0869,-0.0657 0.18811,-0.1 0.10117,-0.0371 0.21275,-0.0371 0.48519,0 0.75113,0.62516 0.13232,0.3083 0.19978,0.66799 0.0675,0.35967 0.0675,0.76218 0,0.83069 -0.27502,1.44443 -0.27503,0.61374 -0.74335,0.61374 -0.45275,0 -0.73426,-0.57664 -0.2828,-0.57377 -0.2828,-1.48153 z"
         style="font-style:normal;font-variant:normal;font-weight:normal;font-stretch:normal;font-size:20.74649429px;line-height:0;font-family:'Rockwell Extra Bold';-inkscape-font-specification:'Rockwell Extra Bold, ';letter-spacing:0px;word-spacing:0px;fill:#ffffff;fill-opacity:1;stroke:none;stroke-width:0.26458332"
         id="path3333"
         inkscape:connector-curvature="0" />
      <path
         d="m -419.80394,169.79024 h -0.18422 v -0.75362 h 0.80692 q 0,0.65086 -0.0415,0.96772 -0.0402,0.30543 -0.16865,0.61944 -0.12584,0.31115 -0.30486,0.45389 -0.17903,0.14272 -0.384,0.14272 -0.30486,0 -0.55394,-0.22265 -0.25037,-0.21695 -0.38659,-0.71936 -0.1375,-0.49385 -0.1375,-1.10759 0,-0.92775 0.27761,-1.49583 0.27502,-0.56806 0.67459,-0.56806 0.33339,0 0.5228,0.35682 v -0.27689 h 0.43458 v 1.38735 h -0.43458 q -0.0571,-0.25692 -0.14919,-0.38824 -0.0908,-0.1313 -0.21275,-0.1313 -0.17125,0 -0.25167,0.24549 -0.0791,0.2455 -0.0791,0.90205 0,0.65371 0.083,0.8878 0.0844,0.23692 0.24519,0.23692 0.24389,0 0.24389,-0.53666 z"
         style="font-style:normal;font-variant:normal;font-weight:normal;font-stretch:normal;font-size:20.74649429px;line-height:0;font-family:'Rockwell Extra Bold';-inkscape-font-specification:'Rockwell Extra Bold, ';letter-spacing:0px;word-spacing:0px;fill:#ffffff;fill-opacity:1;stroke:none;stroke-width:0.26458332"
         id="path3335"
         inkscape:connector-curvature="0" />
      <path
         d="m -418.08505,168.05749 v 0.75647 h 0.0778 q 0.15308,0 0.20757,-0.02 0.0584,-0.02 0.0986,-0.11418 0.0402,-0.0885 0.0402,-0.24265 0,-0.15414 -0.0402,-0.24549 -0.0402,-0.0942 -0.1025,-0.11418 -0.0597,-0.02 -0.21794,-0.02 z m 0.13622,3.10011 h -0.98074 v -0.95058 h 0.14659 v -2.0696 h -0.14659 v -0.95059 h 0.98074 q 0.13232,0 0.24518,0.0115 0.11287,0.009 0.1933,0.0286 0.0805,0.0171 0.14789,0.0485 0.1894,0.0885 0.30745,0.38538 0.11936,0.30259 0.11936,0.71364 0,0.3083 -0.0727,0.55951 -0.0727,0.24836 -0.19069,0.36539 l 0.24908,0.90776 h 0.12972 v 0.95059 h -0.64994 l -0.39307,-1.62142 h -0.22184 v 0.67083 h 0.13622 z"
         style="font-style:normal;font-variant:normal;font-weight:normal;font-stretch:normal;font-size:20.74649429px;line-height:0;font-family:'Rockwell Extra Bold';-inkscape-font-specification:'Rockwell Extra Bold, ';letter-spacing:0px;word-spacing:0px;fill:#ffffff;fill-opacity:1;stroke:none;stroke-width:0.26458332"
         id="path3337"
         inkscape:connector-curvature="0" />
      <path
         d="m -415.8641,168.19451 -0.16995,1.09902 h 0.32303 z m -0.16995,2.96309 h -0.71479 v -0.95058 h 0.1375 l 0.3386,-2.0696 h -0.1453 v -0.95059 h 1.29727 v 0.95059 h -0.14528 l 0.34507,2.0696 h 0.13232 v 0.95058 h -0.94183 v -0.87066 h 0.15828 l -0.0688,-0.49955 h -0.46183 l -0.0791,0.49955 h 0.14789 z"
         style="font-style:normal;font-variant:normal;font-weight:normal;font-stretch:normal;font-size:20.74649429px;line-height:0;font-family:'Rockwell Extra Bold';-inkscape-font-specification:'Rockwell Extra Bold, ';letter-spacing:0px;word-spacing:0px;fill:#ffffff;fill-opacity:1;stroke:none;stroke-width:0.26458332"
         id="path3339"
         inkscape:connector-curvature="0" />
      <path
         d="m -413.94543,171.1576 h -0.69923 v -0.95058 h 0.13881 v -2.0696 h -0.1427 v -0.95059 h 1.08841 l 0.26594,1.53293 0.27243,-1.53293 h 1.08194 v 0.95059 h -0.14141 v 2.0696 h 0.1453 v 0.95058 h -0.94183 v -0.95058 h 0.144 v -2.21805 l -0.54485,3.16863 h -0.26984 l -0.53966,-3.14008 v 2.1895 h 0.14269 z"
         style="font-style:normal;font-variant:normal;font-weight:normal;font-stretch:normal;font-size:20.74649429px;line-height:0;font-family:'Rockwell Extra Bold';-inkscape-font-specification:'Rockwell Extra Bold, ';letter-spacing:0px;word-spacing:0px;fill:#ffffff;fill-opacity:1;stroke:none;stroke-width:0.26458332"
         id="path3341"
         inkscape:connector-curvature="0" />
      <path
         d="m -411.01357,171.1576 h -0.69924 v -0.95058 h 0.13881 v -2.0696 h -0.1427 v -0.95059 h 1.08841 l 0.26595,1.53293 0.27242,-1.53293 h 1.08194 v 0.95059 h -0.1414 v 2.0696 h 0.14529 v 0.95058 h -0.94182 v -0.95058 h 0.14399 v -2.21805 l -0.54486,3.16863 h -0.26983 l -0.53966,-3.14008 v 2.1895 h 0.1427 z"
         style="font-style:normal;font-variant:normal;font-weight:normal;font-stretch:normal;font-size:20.74649429px;line-height:0;font-family:'Rockwell Extra Bold';-inkscape-font-specification:'Rockwell Extra Bold, ';letter-spacing:0px;word-spacing:0px;fill:#ffffff;fill-opacity:1;stroke:none;stroke-width:0.26458332"
         id="path3343"
         inkscape:connector-curvature="0" />
      <path
         d="m -407.05428,171.1576 h -1.72148 v -0.95058 h 0.1401 v -2.0696 h -0.14271 v -0.95059 h 1.72409 v 1.27031 h -0.4735 v -0.31972 h -0.40995 v 0.61089 h 0.35676 v 0.80785 h -0.35676 v 0.65086 h 0.40995 v -0.31972 h 0.4735 z"
         style="font-style:normal;font-variant:normal;font-weight:normal;font-stretch:normal;font-size:20.74649429px;line-height:0;font-family:'Rockwell Extra Bold';-inkscape-font-specification:'Rockwell Extra Bold, ';letter-spacing:0px;word-spacing:0px;fill:#ffffff;fill-opacity:1;stroke:none;stroke-width:0.26458332"
         id="path3345"
         inkscape:connector-curvature="0" />
      <path
         d="m -405.94251,168.05749 v 0.75647 h 0.0778 q 0.15308,0 0.20757,-0.02 0.0584,-0.02 0.0986,-0.11418 0.0402,-0.0885 0.0402,-0.24265 0,-0.15414 -0.0402,-0.24549 -0.0402,-0.0942 -0.1025,-0.11418 -0.0597,-0.02 -0.21795,-0.02 z m 0.13621,3.10011 h -0.98074 v -0.95058 h 0.14659 v -2.0696 h -0.14659 v -0.95059 h 0.98074 q 0.13232,0 0.24519,0.0115 0.11286,0.009 0.1933,0.0286 0.0805,0.0171 0.14789,0.0485 0.1894,0.0885 0.30745,0.38538 0.11935,0.30259 0.11935,0.71364 0,0.3083 -0.0727,0.55951 -0.0727,0.24836 -0.1907,0.36539 l 0.24907,0.90776 h 0.12974 v 0.95059 h -0.64995 l -0.39307,-1.62142 h -0.22183 v 0.67083 h 0.13621 z"
         style="font-style:normal;font-variant:normal;font-weight:normal;font-stretch:normal;font-size:20.74649429px;line-height:0;font-family:'Rockwell Extra Bold';-inkscape-font-specification:'Rockwell Extra Bold, ';letter-spacing:0px;word-spacing:0px;fill:#ffffff;fill-opacity:1;stroke:none;stroke-width:0.26458332"
         id="path3347"
         inkscape:connector-curvature="0" />
      <path
         d="m -404.47788,168.25731 v -0.75647 l 1.45813,1.33025 v 0.63943 l -1.45813,1.33311 v -0.75648 l 1.00928,-0.89634 z"
         style="font-style:normal;font-variant:normal;font-weight:normal;font-stretch:normal;font-size:20.74649429px;line-height:0;font-family:'Rockwell Extra Bold';-inkscape-font-specification:'Rockwell Extra Bold, ';letter-spacing:0px;word-spacing:0px;fill:#ffffff;fill-opacity:1;stroke:none;stroke-width:0.26458332"
         id="path3349"
         inkscape:connector-curvature="0" />
      <rect
         style="fill:#ffffff;stroke-width:0.26458332"
         x="-401.16138"
         y="162.79138"
         width="6.9329839"
         height="5.0680051"
         id="rect12713" />
      <path
         style="fill:#14162b;fill-opacity:1;stroke-width:0.26458332"
         inkscape:connector-curvature="0"
         d="m -394.2284,167.9276 h -6.93299 a 0.0833091,0.06821002 0 0 1 -0.0834,-0.0682 v -5.068 a 0.08497528,0.06957423 0 0 1 0.0834,-0.0682 h 6.93299 a 0.0833091,0.06821002 0 0 1 0.0833,0.0682 v 5.068 a 0.0833091,0.06821002 0 0 1 -0.0833,0.0682 z m -6.84967,-0.13642 h 6.76636 v -4.93159 h -6.76636 z"
         id="path12715" />
      <path
         style="fill:#14162b;fill-opacity:1;stroke-width:0.26458332"
         inkscape:connector-curvature="0"
         d="m -394.2284,163.5417 h -6.93299 a 0.08497528,0.06957423 0 0 1 -0.0834,-0.0682 0.0833091,0.06821002 0 0 1 0.0834,-0.0682 h 6.93299 a 0.0833091,0.06821002 0 0 1 0.0833,0.0682 0.0833091,0.06821002 0 0 1 -0.0833,0.0682 z"
         id="path12717" />
      <path
         style="fill:#14162b;fill-opacity:1;stroke-width:0.26458332"
         inkscape:connector-curvature="0"
         d="m -400.17834,165.66985 v -0.21827 l 1.23464,-0.60843 0.20995,0.27284 -0.92807,0.442 0.92807,0.44472 -0.20995,0.27285 z"
         id="path12719" />
      <path
         style="fill:#14162b;fill-opacity:1;stroke-width:0.26458332"
         inkscape:connector-curvature="0"
         d="m -398.56547,166.51293 1.46457,-2.04631 0.27659,0.13643 -1.46124,2.03538 z"
         id="path12721" />
      <path
         style="fill:#14162b;fill-opacity:1;stroke-width:0.26458332"
         inkscape:connector-curvature="0"
         d="m -396.65603,166.00544 0.92807,-0.44472 -0.92807,-0.442 0.20995,-0.27285 1.2363,0.60844 v 0.21827 l -1.2363,0.60844 z"
         id="path12723" />
      <rect
         style="fill:#ffffff;stroke-width:0.26458332"
         x="-401.98862"
         y="173.9704"
         width="9.6458769"
         height="7.051127"
         id="rect12725" />
      <path
         style="fill:#14162b;fill-opacity:1;stroke-width:0.26458332"
         inkscape:connector-curvature="0"
         d="m -392.34276,181.11676 h -9.64589 a 0.11590814,0.09490076 0 0 1 -0.11603,-0.0949 v -7.05112 a 0.1182263,0.09679879 0 0 1 0.11603,-0.0949 h 9.64589 a 0.11590814,0.09490076 0 0 1 0.11589,0.0949 v 7.05112 a 0.11590814,0.09490076 0 0 1 -0.11589,0.0949 z m -9.52997,-0.1898 h 9.41406 v -6.86134 h -9.41406 z"
         id="path12727" />
      <rect
         id="rect12729"
         height="7.6952472"
         width="10.527028"
         y="173.6483"
         x="-402.42917"
         style="fill:#ffffff;stroke-width:0.26458332" />
      <path
         id="path12731"
         d="m -391.90216,181.44748 h -10.52704 a 0.12649635,0.10356994 0 0 1 -0.12663,-0.10357 v -7.69524 a 0.12902627,0.10564136 0 0 1 0.12663,-0.10357 h 10.52704 a 0.12649635,0.10356994 0 0 1 0.12647,0.10357 v 7.69524 a 0.12649635,0.10356994 0 0 1 -0.12647,0.10357 z m -10.40054,-0.20714 h 10.27404 v -7.48812 h -10.27404 z"
         inkscape:connector-curvature="0"
         style="fill:#14162b;fill-opacity:1;stroke-width:0.26458332" />
      <path
         id="path12733"
         d="m -391.90216,174.78794 h -10.52704 a 0.12902627,0.10564136 0 0 1 -0.12663,-0.10357 0.12649635,0.10356994 0 0 1 0.12663,-0.10356 h 10.52704 a 0.12649635,0.10356994 0 0 1 0.12647,0.10356 0.12649635,0.10356994 0 0 1 -0.12647,0.10357 z"
         inkscape:connector-curvature="0"
         style="fill:#14162b;fill-opacity:1;stroke-width:0.26458332" />
      <text
         transform="scale(1.1226949,0.89071394)"
         id="text12743"
         y="197.58305"
         x="-357.75198"
         style="font-style:normal;font-variant:normal;font-weight:normal;font-stretch:normal;font-size:9.42672253px;line-height:0;font-family:'Sitka Small';-inkscape-font-specification:'Sitka Small';letter-spacing:0px;word-spacing:0px;fill:#000000;fill-opacity:1;stroke:none;stroke-width:0.26458332"
         xml:space="preserve"><tspan
           id="tspan12745"
           style="font-style:normal;font-variant:normal;font-weight:bold;font-stretch:normal;font-size:1.25689662px;font-family:'Segoe UI Emoji';-inkscape-font-specification:'Segoe UI Emoji Bold';stroke-width:0.26458332"
           y="197.58305"
           x="-357.75198"
           sodipodi:role="line">&gt; 0 == &quot;0&quot;</tspan></text>
      <text
         transform="scale(1.1226949,0.89071394)"
         xml:space="preserve"
         style="font-style:normal;font-variant:normal;font-weight:normal;font-stretch:normal;font-size:9.42672253px;line-height:0;font-family:'Sitka Small';-inkscape-font-specification:'Sitka Small';letter-spacing:0px;word-spacing:0px;fill:#000000;fill-opacity:1;stroke:none;stroke-width:0.26458332"
         x="-357.629"
         y="198.43294"
         id="text12753"><tspan
           sodipodi:role="line"
           x="-357.629"
           y="198.43294"
           style="font-style:normal;font-variant:normal;font-weight:bold;font-stretch:normal;font-size:1.09978449px;font-family:'Segoe UI Emoji';-inkscape-font-specification:'Segoe UI Emoji Bold';stroke-width:0.26458332"
           id="tspan12751">true</tspan></text>
      <text
         transform="scale(1.1226949,0.89071394)"
         xml:space="preserve"
         style="font-style:normal;font-variant:normal;font-weight:normal;font-stretch:normal;font-size:9.42672253px;line-height:0;font-family:'Sitka Small';-inkscape-font-specification:'Sitka Small';letter-spacing:0px;word-spacing:0px;fill:#000000;fill-opacity:1;stroke:none;stroke-width:0.26458332"
         x="-357.75198"
         y="199.75591"
         id="text12757"><tspan
           sodipodi:role="line"
           x="-357.75198"
           y="199.75591"
           style="font-style:normal;font-variant:normal;font-weight:bold;font-stretch:normal;font-size:1.25689662px;font-family:'Segoe UI Emoji';-inkscape-font-specification:'Segoe UI Emoji Bold';stroke-width:0.26458332"
           id="tspan12755">&gt; 0 == []</tspan></text>
      <text
         transform="scale(1.1226949,0.89071394)"
         id="text12761"
         y="200.61894"
         x="-357.629"
         style="font-style:normal;font-variant:normal;font-weight:normal;font-stretch:normal;font-size:9.42672253px;line-height:0;font-family:'Sitka Small';-inkscape-font-specification:'Sitka Small';letter-spacing:0px;word-spacing:0px;fill:#000000;fill-opacity:1;stroke:none;stroke-width:0.26458332"
         xml:space="preserve"><tspan
           id="tspan12759"
           style="font-style:normal;font-variant:normal;font-weight:bold;font-stretch:normal;font-size:1.09978449px;font-family:'Segoe UI Emoji';-inkscape-font-specification:'Segoe UI Emoji Bold';stroke-width:0.26458332"
           y="200.61894"
           x="-357.629"
           sodipodi:role="line">true</tspan></text>
      <text
         id="text12765"
         y="202.00098"
         x="-357.77283"
         style="font-style:normal;font-variant:normal;font-weight:normal;font-stretch:normal;font-size:9.42672253px;line-height:0;font-family:'Sitka Small';-inkscape-font-specification:'Sitka Small';letter-spacing:0px;word-spacing:0px;fill:#000000;fill-opacity:1;stroke:none;stroke-width:0.26458332"
         xml:space="preserve"
         transform="scale(1.1226949,0.89071394)"><tspan
           id="tspan12763"
           style="font-style:normal;font-variant:normal;font-weight:bold;font-stretch:normal;font-size:1.25689662px;font-family:'Segoe UI Emoji';-inkscape-font-specification:'Segoe UI Emoji Bold';stroke-width:0.26458332"
           y="202.00098"
           x="-357.77283"
           sodipodi:role="line">&gt; &quot;0&quot; == []</tspan></text>
      <text
         xml:space="preserve"
         style="font-style:normal;font-variant:normal;font-weight:normal;font-stretch:normal;font-size:9.42672253px;line-height:0;font-family:'Sitka Small';-inkscape-font-specification:'Sitka Small';letter-spacing:0px;word-spacing:0px;fill:#000000;fill-opacity:1;stroke:none;stroke-width:0.26458332"
         x="-357.63177"
         y="202.89354"
         id="text12769"
         transform="scale(1.1226949,0.89071394)"><tspan
           sodipodi:role="line"
           x="-357.63177"
           y="202.89354"
           style="font-style:normal;font-variant:normal;font-weight:bold;font-stretch:normal;font-size:1.09978449px;font-family:'Segoe UI Emoji';-inkscape-font-specification:'Segoe UI Emoji Bold';stroke-width:0.26458332"
           id="tspan12767">false</tspan></text>
    </g>
    <text
       id="text12773"
       y="153.96059"
       x="-444.21594"
       style="font-style:normal;font-variant:normal;font-weight:normal;font-stretch:normal;font-size:10.58333302px;line-height:0;font-family:'Sitka Small';-inkscape-font-specification:'Sitka Small';letter-spacing:0px;word-spacing:0px;fill:#000000;fill-opacity:1;stroke:none;stroke-width:0.26458332"
       xml:space="preserve"><tspan
         style="font-size:4.23333406px;fill:#14162b;fill-opacity:1;stroke-width:0.26458332"
         y="153.96059"
         x="-444.21594"
         id="tspan12771"
         sodipodi:role="line">Banner.js</tspan></text>
    <text
       id="text12934"
       y="161.11227"
       x="-376.97772"
       style="font-style:normal;font-variant:normal;font-weight:normal;font-stretch:normal;font-size:10.58333302px;line-height:0;font-family:'Sitka Small';-inkscape-font-specification:'Sitka Small';letter-spacing:0px;word-spacing:0px;fill:#000000;fill-opacity:1;stroke:none;stroke-width:0.26458332"
       xml:space="preserve"><tspan
         style="font-size:3.88055611px;fill:#14162b;fill-opacity:1;stroke-width:0.26458332"
         y="161.11227"
         x="-376.97772"
         sodipodi:role="line"
         id="tspan12936">var displayBanner = () =&gt; {</tspan></text>
    <text
       xml:space="preserve"
       style="font-style:normal;font-variant:normal;font-weight:normal;font-stretch:normal;font-size:10.58333302px;line-height:0;font-family:'Sitka Small';-inkscape-font-specification:'Sitka Small';letter-spacing:0px;word-spacing:0px;fill:#000000;fill-opacity:1;stroke:none;stroke-width:0.26458332"
       x="-377.5069"
       y="164.81639"
       id="text12942"><tspan
         id="tspan12940"
         sodipodi:role="line"
         x="-377.5069"
         y="164.81639"
         style="font-size:3.88055611px;fill:#14162b;fill-opacity:1;stroke-width:0.26458332">    document.querySelector(&quot;.banner&quot;).style.display = 'block';</tspan></text>
    <text
       xml:space="preserve"
       style="font-style:normal;font-variant:normal;font-weight:normal;font-stretch:normal;font-size:10.58333302px;line-height:0;font-family:'Sitka Small';-inkscape-font-specification:'Sitka Small';letter-spacing:0px;word-spacing:0px;fill:#000000;fill-opacity:1;stroke:none;stroke-width:0.26458332"
       x="-376.97772"
       y="167.99135"
       id="text12946"><tspan
         id="tspan12944"
         sodipodi:role="line"
         x="-376.97772"
         y="167.99135"
         style="font-size:3.88055611px;fill:#14162b;fill-opacity:1;stroke-width:0.26458332">}</tspan></text>
  </g>
</svg>
